Courier10PitchBT-Italic.sfdir
StartChar: exclam
Encoding: 33 33 1
Width: 602
Flags: W
HStem: -15 158<244 296.5> 192 20 580 20<348.5 384.5>
VStem: 183 175<41 87> 261 157
LayerCount: 2
Fore
SplineSet
183 64 m 0x90
 183 110 217 143 270 143 c 0
 323 143 358 110 358 64 c 0
 358 18 323 -15 270 -15 c 0
 218 -15 183 18 183 64 c 0x90
262 228 m 2x68
 311 535 l 2
 317 572 324 600 373 600 c 0
 396 600 418 581 418 567 c 0
 418 565 416 555 411 535 c 2
 333 231 l 2
 326 205 317 192 290 192 c 0
 270 192 261 200 261 217 c 0
 261 220 261 224 262 228 c 2x68
EndSplineSet
EndChar
StartChar: quotedbl
Encoding: 34 34 2
Width: 602
Flags: MW
HStem: 338 241<185.5 195 195 225 367.5 377 377 407>
VStem: 155 110<549 555 554 555 549 563> 337 110<549 555 554 555 549 563>
LayerCount: 2
Fore
SplineSet
195 338 m 2
 176 338 172 347 170 368 c 2
 155 549 l 2
 155 551 155 553 155 555 c 0
 155 571 162 579 177 579 c 2
 242 579 l 2
 257 579 265 571 265 555 c 0
 265 553 265 551 265 549 c 2
 250 368 l 2
 248 347 244 338 225 338 c 2
 195 338 l 2
377 338 m 2
 358 338 354 347 352 368 c 2
 337 549 l 2
 337 551 337 553 337 555 c 0
 337 571 345 579 360 579 c 2
 425 579 l 2
 440 579 447 571 447 555 c 0
 447 553 447 551 447 549 c 2
 432 368 l 2
 430 347 426 338 407 338 c 2
 377 338 l 2
EndSplineSet
EndChar
StartChar: numbersign
Encoding: 35 35 3
Width: 602
Flags: MW
HStem: -58 20 184 66<126.5 202 137 198 137 259 262 330 396 464> 366 65<126.5 210 137 207 137 268 272 341 404 464> 653 20<243 261 376 394>
VStem: 105 391<206.5 227.5 388.5 409.5>
LayerCount: 2
Fore
SplineSet
247 -27 m 2
 246 -47 235 -58 215 -58 c 0
 198 -58 187 -46 187 -27 c 0
 187 -26 187 -25 187 -24 c 2
 198 184 l 1
 137 184 l 2
 116 184 105 196 105 217 c 0
 105 238 116 250 137 250 c 2
 202 250 l 1
 207 366 l 1
 137 366 l 2
 116 366 105 378 105 399 c 0
 105 420 116 431 137 431 c 2
 210 431 l 1
 222 643 l 2
 223 663 234 673 252 673 c 0
 270 673 282 662 282 642 c 2
 282 642 282 641 282 640 c 2
 272 431 l 1
 343 431 l 1
 355 643 l 2
 356 663 367 673 385 673 c 0
 403 673 416 662 416 642 c 2
 416 642 416 641 416 640 c 2
 404 431 l 1
 464 431 l 2
 485 431 496 420 496 399 c 0
 496 378 485 366 464 366 c 2
 402 366 l 1
 396 250 l 1
 464 250 l 2
 485 250 496 238 496 217 c 0
 496 196 485 184 464 184 c 2
 392 184 l 1
 381 -27 l 2
 380 -47 369 -58 349 -58 c 0
 332 -58 320 -46 320 -26 c 2
 320 -26 320 -25 320 -24 c 2
 330 184 l 1
 259 184 l 1
 247 -27 l 2
262 250 m 1
 334 250 l 1
 341 366 l 1
 268 366 l 1
 262 250 l 1
EndSplineSet
EndChar
StartChar: dollar
Encoding: 36 36 4
Width: 602
Flags: MW
HStem: 31 70<264 264> 524 63<336 336 336 369.5>
VStem: 142 80<419.5 458 419.5 464> 382 89<175 215>
LayerCount: 2
Fore
SplineSet
197 35 m 1
 170 40 148 50 129 68 c 1
 118 53 106 46 92 46 c 0
 73 46 57 60 57 82 c 0
 57 87 58 91 59 96 c 2
 74 164 l 2
 79 186 98 204 118 204 c 0
 138 204 152 191 152 171 c 0
 152 167 152 164 152 162 c 0
 152 132 212 101 272 101 c 0
 336 101 382 147 382 203 c 0
 382 227 365 247 335 259 c 2
 230 299 l 2
 173 321 142 363 142 414 c 0
 142 514 213 584 336 587 c 1
 349 628 l 2
 356 651 371 664 390 664 c 0
 408 664 420 655 420 643 c 0
 420 639 419 631 416 623 c 2
 404 585 l 1
 427 579 447 570 467 558 c 1
 476 572 486 578 500 578 c 0
 514 578 524 567 524 553 c 0
 524 552 524 550 524 548 c 2
 509 473 l 2
 505 454 489 439 472 439 c 0
 434 439 440 471 434 486 c 0
 426 506 392 524 347 524 c 0
 276 524 222 482 222 434 c 0
 222 405 244 379 280 366 c 2
 378 332 l 2
 439 311 471 268 471 210 c 0
 471 122 391 38 264 31 c 1
 236 -80 l 2
 229 -107 212 -122 192 -122 c 0
 175 -122 164 -113 164 -100 c 0
 164 -95 164 -89 166 -83 c 2
 197 35 l 1
EndSplineSet
EndChar
StartChar: ampersand
Encoding: 38 38 6
Width: 602
Flags: MW
HStem: -9 74<196 218> 220 75 489 62<299.5 339 280 340>
VStem: 67 82<117 162.5 117 164.5> 180 72<409.5 440 409.5 454>
LayerCount: 2
Fore
SplineSet
338 51 m 1
 291 11 241 -9 195 -9 c 0
 120 -9 67 46 67 127 c 0
 67 202 113 263 206 315 c 1
 189 351 180 384 180 414 c 0
 180 494 238 551 322 551 c 0
 356 551 384 542 412 522 c 1
 419 522 422 523 423 523 c 0
 441 523 450 515 450 500 c 0
 450 494 447 487 444 483 c 2
 425 459 l 2
 422 455 416 452 409 452 c 0
 385 452 359 489 321 489 c 0
 278 489 252 461 252 419 c 0
 252 400 259 374 273 347 c 2
 361 172 l 1
 406 240 402 295 434 295 c 2
 469 295 l 2
 482 295 491 286 491 271 c 0
 491 244 477 221 454 220 c 1
 439 181 419 145 393 110 c 1
 411 73 l 2
 413 73 414 73 416 73 c 0
 435 73 443 67 443 53 c 0
 443 15 427 0 395 0 c 0
 375 0 363 4 356 17 c 2
 338 51 l 1
309 109 m 1
 234 257 l 1
 177 223 149 187 149 138 c 0
 149 96 174 65 218 65 c 0
 244 65 276 79 309 109 c 1
EndSplineSet
EndChar
StartChar: quotesingle
Encoding: 169 39 103
Width: 602
Flags: MW
HStem: 331 248<275 285 285 316>
VStem: 244 113<548 554 553 554 548 562.5>
LayerCount: 2
Fore
SplineSet
285 331 m 2
 265 331 261 340 259 362 c 2
 244 548 l 2
 244 550 244 552 244 554 c 0
 244 571 252 579 267 579 c 2
 334 579 l 2
 349 579 357 571 357 554 c 0
 357 552 357 550 357 548 c 2
 341 362 l 2
 339 340 336 331 316 331 c 2
 285 331 l 2
EndSplineSet
EndChar
StartChar: parenleft
Encoding: 40 40 8
Width: 602
Flags: MW
HStem: -194 20 577 20<462 484.5>
VStem: 208 92<10 136.5 10 140.5>
LayerCount: 2
Fore
SplineSet
208 93 m 0
 208 188 239 305 291 394 c 0
 370 528 446 597 478 597 c 0
 491 597 498 589 498 577 c 0
 498 557 456 519 410 440 c 0
 338 318 300 201 300 72 c 0
 300 -52 340 -136 340 -166 c 0
 340 -182 328 -194 314 -194 c 0
 275 -194 208 -75 208 93 c 0
EndSplineSet
EndChar
StartChar: parenright
Encoding: 41 41 9
Width: 602
Flags: MW
HStem: -194 20 576 20<284 310.5>
VStem: 305 92<266.5 393>
LayerCount: 2
Fore
SplineSet
397 310 m 0
 397 215 366 98 314 9 c 0
 235 -125 160 -194 128 -194 c 0
 115 -194 108 -186 108 -174 c 0
 108 -154 149 -116 195 -37 c 0
 267 85 305 202 305 331 c 0
 305 455 266 539 266 569 c 0
 266 585 277 596 291 596 c 0
 330 596 397 478 397 310 c 0
EndSplineSet
EndChar
StartChar: plus
Encoding: 43 43 11
Width: 602
Flags: MW
HStem: 50 20 272 71<76.5 264 88 264 337 514> 546 20<290 312>
VStem: 264 73<89 272 343 527>
LayerCount: 2
Fore
SplineSet
514 343 m 2
 537 343 553 329 553 307 c 0
 553 286 537 272 514 272 c 2
 337 272 l 1
 337 89 l 2
 337 66 323 50 301 50 c 0
 281 50 264 68 264 89 c 2
 264 272 l 1
 88 272 l 2
 65 272 49 286 49 307 c 0
 49 327 67 343 88 343 c 2
 264 343 l 1
 264 527 l 2
 264 550 279 566 301 566 c 0
 323 566 337 550 337 527 c 2
 337 343 l 1
 514 343 l 2
EndSplineSet
EndChar
StartChar: comma
Encoding: 44 44 12
Width: 602
Flags: MW
HStem: -160 307<189 387>
VStem: 141 258
LayerCount: 2
Fore
SplineSet
149 -108 m 2
 256 126 l 2
 263 141 271 147 289 147 c 2
 387 147 l 2
 394 147 399 141 399 134 c 0
 399 132 399 129 397 127 c 2
 214 -145 l 2
 207 -155 199 -160 191 -160 c 0
 187 -160 183 -159 179 -157 c 2
 149 -142 l 2
 145 -140 141 -133 141 -128 c 0
 141 -126 144 -119 149 -108 c 2
EndSplineSet
EndChar
StartChar: hyphen
Encoding: 45 45 13
Width: 602
Flags: MW
HStem: 178 95<110 516 130 504>
VStem: 94 446<196 255 198.5 255>
LayerCount: 2
Fore
SplineSet
118 178 m 2
 102 178 94 188 94 196 c 0
 94 197 94 198 94 199 c 2
 106 249 l 2
 110 265 118 273 130 273 c 2
 516 273 l 2
 532 273 540 263 540 255 c 0
 540 254 540 253 540 252 c 2
 528 202 l 2
 524 186 516 178 504 178 c 2
 118 178 l 2
EndSplineSet
EndChar
StartChar: period
Encoding: 46 46 14
Width: 602
Flags: MW
HStem: -15 174<272 330>
VStem: 205 192<47 97>
LayerCount: 2
Fore
SplineSet
205 72 m 0
 205 122 243 159 301 159 c 0
 359 159 397 123 397 72 c 0
 397 21 359 -15 301 -15 c 0
 243 -15 205 22 205 72 c 0
EndSplineSet
EndChar
StartChar: zero
Encoding: 48 48 16
Width: 602
Flags: MW
HStem: -15 67<217 276 217 283.5> 568 65<319.5 380>
VStem: 62 80<153.5 232.5 153.5 245.5> 456 81<384 469>
LayerCount: 2
Fore
SplineSet
62 196 m 0
 62 295 94 411 149 500 c 0
 204 590 273 633 358 633 c 0
 475 633 537 560 537 422 c 0
 537 324 505 210 449 118 c 0
 395 29 326 -15 241 -15 c 0
 124 -15 62 58 62 196 c 0
348 568 m 0
 291 568 243 523 199 432 c 0
 162 356 142 266 142 199 c 0
 142 108 186 52 248 52 c 0
 304 52 355 98 400 188 c 0
 437 263 456 344 456 424 c 0
 456 514 412 568 348 568 c 0
EndSplineSet
EndChar
StartChar: one
Encoding: 49 49 17
Width: 602
Flags: MW
HStem: 0 67<97.5 230 122 230 304 394> 609 20<398.5 406.5>
VStem: 77 362<27.5 40.5>
LayerCount: 2
Fore
SplineSet
332 546 m 1
 240 524 l 2
 235 523 230 522 225 522 c 0
 204 522 190 535 190 553 c 0
 190 569 201 582 222 587 c 2
 380 626 l 2
 388 628 395 629 402 629 c 0
 411 629 418 620 418 607 c 0
 418 604 418 600 417 597 c 2
 304 67 l 1
 409 67 l 2
 429 67 439 58 439 40 c 0
 439 15 423 0 394 0 c 2
 107 0 l 2
 88 0 77 10 77 28 c 0
 77 53 93 67 122 67 c 2
 230 67 l 1
 332 546 l 1
EndSplineSet
EndChar
StartChar: two
Encoding: 50 50 18
Width: 602
Flags: MW
HStem: 0 67<58.5 360 136 360 136 374> 567 64<314.5 360.5>
VStem: 424 79<442.5 503.5>
LayerCount: 2
Fore
SplineSet
75 0 m 2
 42 0 25 14 25 37 c 0
 25 62 50 87 97 125 c 2
 294 288 l 2
 377 356 424 409 424 476 c 0
 424 531 387 567 334 567 c 0
 295 567 250 545 226 513 c 0
 209 491 204 470 173 470 c 0
 158 470 151 479 151 497 c 0
 151 573 248 631 343 631 c 0
 440 631 503 569 503 478 c 0
 503 387 442 317 324 221 c 2
 136 67 l 1
 360 67 l 1
 369 102 386 120 407 120 c 0
 424 120 438 109 438 93 c 0
 438 89 437 81 433 70 c 2
 421 32 l 2
 415 14 397 0 374 0 c 2
 75 0 l 2
EndSplineSet
EndChar
StartChar: three
Encoding: 51 51 19
Width: 602
Flags: W
HStem: -16 71<175.5 260.5 175.5 284> 294 69 567 65<309 365.5>
VStem: 377 82<164 227.5> 419 78<461 513.5>
LayerCount: 2
Fore
SplineSet
369 336 m 1x68
 426 325 459 280 459 214 c 0
 459 91 358 -16 210 -16 c 0
 105 -16 37 27 37 68 c 0
 37 88 50 101 69 101 c 0
 99 101 139 55 212 55 c 0
 309 55 377 126 377 202 c 0x90
 377 253 348 284 292 294 c 0
 255 301 238 295 238 319 c 0
 238 360 262 356 296 363 c 0
 376 380 419 429 419 493 c 0
 419 534 385 567 346 567 c 0
 264 567 218 514 191 514 c 0
 177 514 166 525 166 540 c 0
 166 577 262 632 356 632 c 0
 442 632 497 577 497 498 c 0
 497 417 455 364 369 336 c 1x68
EndSplineSet
EndChar
StartChar: four
Encoding: 52 52 20
Width: 602
Flags: MW
HStem: 0 67<217.5 298 242 298 364 389> 165 61<90.5 332 142 320 142 384 398 418 418 425.5> 614 20<396 402.5>
VStem: 69 408<187 597 192 597>
LayerCount: 2
Fore
SplineSet
320 165 m 1
 101 165 l 2
 80 165 69 172 69 187 c 0
 69 189 69 191 69 193 c 2
 72 215 l 2
 74 226 78 235 85 244 c 2
 381 621 l 2
 388 630 391 634 401 634 c 0
 404 634 407 634 411 633 c 2
 468 625 l 2
 473 624 478 617 478 611 c 0
 478 607 478 602 477 597 c 2
 398 226 l 1
 418 226 l 2
 433 226 440 243 455 243 c 0
 468 243 474 237 474 225 c 0
 474 217 472 209 470 206 c 2
 455 177 l 2
 452 170 443 165 430 165 c 2
 384 165 l 1
 364 67 l 1
 403 67 l 2
 423 67 433 58 433 40 c 0
 433 15 418 0 389 0 c 2
 227 0 l 2
 208 0 198 10 198 28 c 0
 198 53 213 67 242 67 c 2
 298 67 l 1
 320 165 l 1
142 226 m 1
 332 226 l 1
 406 562 l 1
 142 226 l 1
EndSplineSet
EndChar
StartChar: five
Encoding: 53 53 21
Width: 602
Flags: MW
HStem: -16 71<170 260.5 170 280.5> 344 67<285 321.5> 549 67<244 470 244 244>
VStem: 392 81<185.5 269>
LayerCount: 2
Fore
SplineSet
202 387 m 1
 237 403 269 411 301 411 c 0
 409 411 473 345 473 240 c 0
 473 98 357 -16 204 -16 c 0
 100 -16 32 27 32 68 c 0
 32 88 44 101 63 101 c 0
 93 101 133 55 207 55 c 0
 314 55 392 138 392 233 c 0
 392 305 354 344 289 344 c 0
 218 344 174 298 141 298 c 0
 125 298 119 306 119 324 c 0
 119 328 119 332 120 335 c 2
 181 580 l 2
 189 612 195 616 232 616 c 2
 485 616 l 2
 505 616 515 606 515 588 c 0
 515 563 499 549 470 549 c 2
 244 549 l 1
 202 387 l 1
EndSplineSet
EndChar
StartChar: six
Encoding: 54 54 22
Width: 602
Flags: MW
HStem: -14 66<227.5 292.5 227.5 310.5> 322 69<305 333> 611 20<452 522.5>
VStem: 90 80<121.5 203.5 121.5 244> 393 82<179.5 255>
LayerCount: 2
Fore
SplineSet
192 320 m 1
 228 366 279 391 331 391 c 0
 418 391 475 325 475 230 c 0
 475 102 376 -14 245 -14 c 0
 144 -14 90 50 90 175 c 0
 90 313 145 447 238 535 c 0
 316 609 397 631 507 631 c 0
 538 631 553 623 553 604 c 0
 553 557 498 574 442 565 c 0
 317 545 233 462 192 320 c 1
170 154 m 0
 170 89 200 52 255 52 c 0
 330 52 393 134 393 225 c 0
 393 285 358 322 308 322 c 0
 241 322 170 253 170 154 c 0
EndSplineSet
EndChar
StartChar: seven
Encoding: 55 55 23
Width: 602
Flags: MW
HStem: -7 20 549 67<209 445 209 209>
VStem: 137 395<521.5 605.5>
LayerCount: 2
Fore
SplineSet
445 549 m 1
 209 549 l 1
 203 521 186 505 164 505 c 0
 149 505 137 515 137 528 c 0
 137 531 138 535 139 540 c 2
 154 589 l 2
 160 607 171 616 194 616 c 2
 507 616 l 2
 524 616 532 613 532 598 c 0
 532 586 524 562 506 528 c 2
 227 11 l 2
 221 -1 216 -7 208 -7 c 2
 158 -7 l 2
 147 -7 142 -6 142 4 c 0
 142 7 144 16 149 25 c 2
 445 549 l 1
EndSplineSet
EndChar
StartChar: eight
Encoding: 56 56 24
Width: 602
Flags: W
HStem: -17 76<223.5 290 223.5 310> 276 74<285.5 327.5> 567 67<321.5 389.5>
VStem: 80 78<122 177.5> 145 75<413 472.5 413 487.5> 391 86<156 218> 453 72<447 509>
LayerCount: 2
Fore
SplineSet
403 317 m 1x6a
 454 290 477 254 477 199 c 0
 477 87 374 -17 246 -17 c 0
 150 -17 80 45 80 139 c 0xd4
 80 216 129 285 212 317 c 1
 165 349 145 383 145 434 c 0
 145 541 252 634 356 634 c 0
 463 634 525 574 525 480 c 0
 525 410 485 356 403 317 c 1x6a
220 440 m 0
 220 386 258 350 313 350 c 0
 391 350 453 411 453 483 c 0
 453 535 419 567 360 567 c 0
 283 567 220 505 220 440 c 0
158 149 m 0xd4
 158 95 196 59 251 59 c 0
 329 59 391 120 391 192 c 0
 391 244 357 276 298 276 c 0
 221 276 158 214 158 149 c 0xd4
EndSplineSet
EndChar
StartChar: nine
Encoding: 57 57 25
Width: 602
Flags: MW
HStem: -14 20 227 68<260 288> 566 66<299.5 364.5>
VStem: 118 82<363 438.5 363 452> 423 80<413.5 495.5>
LayerCount: 2
Fore
SplineSet
402 298 m 1
 366 252 314 227 262 227 c 0
 175 227 118 293 118 388 c 0
 118 516 217 632 348 632 c 0
 449 632 503 568 503 443 c 0
 503 305 448 170 355 82 c 0
 277 8 196 -14 86 -14 c 0
 55 -14 40 -6 40 13 c 0
 40 60 95 44 151 53 c 0
 276 73 361 156 402 298 c 1
423 463 m 0
 423 528 392 566 337 566 c 0
 262 566 200 484 200 393 c 0
 200 333 235 295 285 295 c 0
 352 295 423 364 423 463 c 0
EndSplineSet
EndChar
StartChar: colon
Encoding: 58 58 26
Width: 602
Flags: W
HStem: -18 174<241 299> 263 174<302 360>
VStem: 174 192<44 94> 235 193<325 375>
LayerCount: 2
Fore
SplineSet
235 350 m 0x50
 235 400 273 437 331 437 c 0
 390 437 428 401 428 350 c 0
 428 299 389 263 331 263 c 0
 273 263 235 300 235 350 c 0x50
174 69 m 0xa0
 174 119 212 156 270 156 c 0
 328 156 366 120 366 69 c 0
 366 18 328 -18 270 -18 c 0
 212 -18 174 19 174 69 c 0xa0
EndSplineSet
EndChar
StartChar: semicolon
Encoding: 59 59 27
Width: 602
Flags: W
HStem: -160 307<145 342> 263 174<308 366>
VStem: 97 258 241 193<325 375>
LayerCount: 2
Fore
SplineSet
241 350 m 0x50
 241 400 279 437 337 437 c 0
 395 437 434 401 434 350 c 0
 434 299 395 263 337 263 c 0
 279 263 241 300 241 350 c 0x50
104 -108 m 2xa0
 212 126 l 2
 219 141 227 147 245 147 c 2
 342 147 l 2
 349 147 355 141 355 134 c 0
 355 132 355 129 353 127 c 2
 170 -145 l 2
 163 -155 155 -160 147 -160 c 0
 143 -160 139 -159 135 -157 c 2
 105 -142 l 2
 101 -140 97 -133 97 -128 c 0
 97 -126 99 -119 104 -108 c 2xa0
EndSplineSet
EndChar
StartChar: less
Encoding: 60 60 28
Width: 602
Flags: MW
HStem: 69 477<505.5 521 505.5 521>
VStem: 34 509<90.5 322>
LayerCount: 2
Fore
SplineSet
84 356 m 2
 472 534 l 2
 488 542 500 546 511 546 c 0
 531 546 543 534 543 515 c 0
 543 495 529 484 503 472 c 2
 158 308 l 1
 503 144 l 2
 529 132 543 120 543 100 c 0
 543 81 531 69 511 69 c 0
 499 69 488 74 472 81 c 2
 84 262 l 2
 53 276 34 283 34 309 c 0
 34 335 51 341 84 356 c 2
EndSplineSet
EndChar
StartChar: equal
Encoding: 61 61 29
Width: 602
Flags: MW
HStem: 190 72<72 519 82 519> 354 72<72 519 82 519>
VStem: 51 499<214 238 378 402>
LayerCount: 2
Fore
SplineSet
82 190 m 2
 62 190 51 202 51 226 c 0
 51 250 62 262 82 262 c 2
 519 262 l 2
 539 262 550 250 550 226 c 0
 550 202 539 190 519 190 c 2
 82 190 l 2
82 354 m 2
 62 354 51 366 51 390 c 0
 51 414 62 426 82 426 c 2
 519 426 l 2
 539 426 550 414 550 390 c 0
 550 366 539 354 519 354 c 2
 82 354 l 2
EndSplineSet
EndChar
StartChar: question
Encoding: 63 63 31
Width: 602
Flags: MW
HStem: -15 158<195 247.5> 194 20 529 68<302.5 358>
VStem: 134 175<41 87> 415 78<433 478.5>
LayerCount: 2
Fore
SplineSet
134 64 m 0
 134 110 168 143 221 143 c 0
 274 143 309 110 309 64 c 0
 309 18 274 -15 221 -15 c 0
 169 -15 134 18 134 64 c 0
280 230 m 2
 275 206 261 194 238 194 c 0
 216 194 205 202 205 219 c 0
 205 222 205 225 206 228 c 2
 212 261 l 2
 217 287 236 308 258 318 c 2
 328 348 l 2
 386 373 415 410 415 456 c 0
 415 501 385 529 331 529 c 0
 274 529 239 512 233 495 c 2
 227 479 l 2
 220 459 209 449 192 449 c 0
 174 449 162 460 162 478 c 0
 162 481 162 484 163 487 c 2
 173 534 l 2
 180 568 249 597 347 597 c 0
 439 597 493 546 493 462 c 0
 493 370 426 314 288 267 c 1
 280 230 l 2
EndSplineSet
EndChar
StartChar: at
Encoding: 64 64 32
Width: 602
Flags: MW
HStem: -51 57<268 324.5 268 333> 162 61<342.5 350> 397 57<387 419 419 437.5 379 445> 610 58<378.5 423.5>
VStem: 132 63<104.5 206 104.5 236.5> 247 62<263.5 309 263.5 316> 470 64<530.5 557>
LayerCount: 2
Fore
SplineSet
411 235 m 1
 445 397 l 1
 419 397 l 2
 355 397 309 337 309 281 c 0
 309 246 328 223 357 223 c 0
 373 223 391 227 411 235 c 1
477 232 m 1
 483 215 l 2
 486 208 487 201 487 195 c 0
 487 175 458 156 437 156 c 0
 426 156 417 164 406 180 c 1
 380 168 359 162 341 162 c 0
 288 162 247 203 247 267 c 0
 247 365 324 454 434 454 c 0
 441 454 448 454 456 453 c 1
 464 486 470 512 470 534 c 0
 470 580 441 610 406 610 c 0
 351 610 304 564 262 469 c 0
 218 368 195 259 195 153 c 0
 195 56 234 6 302 6 c 0
 347 6 378 30 395 30 c 0
 405 30 416 20 416 7 c 0
 416 -26 372 -51 294 -51 c 0
 195 -51 132 26 132 173 c 0
 132 300 173 447 234 545 c 0
 284 627 343 668 412 668 c 0
 483 668 534 619 534 545 c 0
 534 516 527 482 519 441 c 2
 477 232 l 1
EndSplineSet
EndChar
StartChar: A
Encoding: 65 65 33
Width: 602
Flags: MW
HStem: 0 67<-31.5 16 -7 16 93 142 359 424 500 510> 181 65<191 395 191 407 155 395> 512 67<176 373 201 268>
VStem: -51 606<27.5 40.5>
LayerCount: 2
Fore
SplineSet
93 67 m 1
 156 67 l 2
 176 67 186 58 186 40 c 0
 186 15 171 0 142 0 c 2
 -22 0 l 2
 -41 0 -51 10 -51 28 c 0
 -51 53 -36 67 -7 67 c 2
 16 67 l 1
 268 512 l 1
 186 512 l 2
 166 512 156 521 156 539 c 0
 156 565 172 579 201 579 c 2
 373 579 l 2
 404 579 413 569 419 532 c 2
 500 67 l 1
 525 67 l 2
 545 67 555 58 555 40 c 0
 555 15 539 0 510 0 c 2
 344 0 l 2
 325 0 315 10 315 28 c 0
 315 53 330 67 359 67 c 2
 424 67 l 1
 407 181 l 1
 155 181 l 1
 93 67 l 1
191 246 m 1
 395 246 l 1
 346 531 l 1
 191 246 l 1
EndSplineSet
EndChar
StartChar: B
Encoding: 66 66 34
Width: 602
Flags: W
HStem: 0 67<9.5 78 34 78 154 253 253 260> 267 60<209 325 196 331> 512 67<114 341 139 172 248 341 341 364 248 248>
VStem: 444 83<161.5 218 161.5 218> 461 82<411.5 463>
LayerCount: 2
Fore
SplineSet
364 512 m 2xe8
 248 512 l 1
 209 327 l 1
 331 327 l 2
 418 327 461 366 461 435 c 0
 461 491 429 512 364 512 c 2xe8
19 0 m 2xd0
 0 0 -11 10 -11 28 c 0
 -11 53 5 67 34 67 c 2
 78 67 l 1
 172 512 l 1
 124 512 l 2
 104 512 94 521 94 539 c 0
 94 564 110 579 139 579 c 2
 341 579 l 2
 467 579 543 561 543 446 c 0xe8
 543 377 509 326 444 301 c 1
 501 284 527 248 527 188 c 0
 527 135 508 88 474 55 c 0
 426 8 358 0 260 0 c 2
 19 0 l 2xd0
154 67 m 1
 253 67 l 2
 380 67 444 89 444 191 c 0
 444 245 403 267 325 267 c 2
 196 267 l 1
 154 67 l 1
EndSplineSet
EndChar
StartChar: C
Encoding: 67 67 35
Width: 602
Flags: MW
HStem: -15 67<225.5 288.5 225.5 295> 530 66<335 400.5 328.5 406>
VStem: 38 86<164 255 164 260.5>
LayerCount: 2
Fore
SplineSet
513 562 m 1
 525 581 532 587 552 587 c 0
 571 587 581 578 581 565 c 0
 581 563 576 505 557 415 c 0
 551 387 542 375 519 375 c 0
 478 375 483 395 478 448 c 0
 472 504 440 530 372 530 c 0
 298 530 242 500 194 433 c 0
 147 368 124 295 124 215 c 0
 124 113 183 52 268 52 c 0
 309 52 350 63 393 85 c 0
 433 105 457 130 475 130 c 0
 489 130 501 119 501 103 c 0
 501 83 485 66 453 44 c 0
 397 5 331 -15 259 -15 c 0
 127 -15 38 73 38 214 c 0
 38 307 73 405 132 477 c 0
 196 555 280 596 377 596 c 0
 424 596 467 584 513 562 c 1
EndSplineSet
EndChar
StartChar: D
Encoding: 68 68 36
Width: 602
Flags: MW
HStem: 0 67<9 62 34 62 138 190> 512 67<116 310 140 157 233 309 233 233>
VStem: 491 86<315 416.5>
LayerCount: 2
Fore
SplineSet
309 512 m 2
 233 512 l 1
 138 67 l 1
 221 67 l 2
 390 67 491 187 491 359 c 0
 491 474 435 512 309 512 c 2
62 67 m 1
 157 512 l 1
 126 512 l 2
 106 512 96 521 96 539 c 0
 96 565 111 579 140 579 c 2
 310 579 l 2
 489 579 577 514 577 363 c 0
 577 267 541 169 490 108 c 0
 422 27 332 0 190 0 c 2
 19 0 l 2
 -1 0 -10 8 -10 26 c 0
 -10 53 5 67 34 67 c 2
 62 67 l 1
EndSplineSet
EndChar
StartChar: E
Encoding: 69 69 37
Width: 602
Flags: MW
HStem: 0 67<9.5 86 34 86 161 412> 285 58<218 333 206 343> 512 67<114 543 139 177 253 253 253 510>
VStem: -11 597<19 556>
LayerCount: 2
Fore
SplineSet
19 0 m 2
 0 0 -11 10 -11 28 c 0
 -11 53 5 67 34 67 c 2
 86 67 l 1
 177 512 l 1
 124 512 l 2
 104 512 94 521 94 539 c 0
 94 564 110 579 139 579 c 2
 543 579 l 2
 570 579 586 566 586 546 c 0
 586 543 586 537 584 529 c 2
 559 425 l 2
 550 388 542 379 518 379 c 0
 498 379 488 389 488 406 c 0
 488 412 490 421 492 432 c 2
 510 512 l 1
 253 512 l 1
 218 343 l 1
 343 343 l 1
 352 377 l 2
 358 401 362 417 386 417 c 0
 403 417 412 409 412 394 c 0
 412 388 410 377 407 361 c 2
 386 254 l 2
 380 224 378 212 352 212 c 0
 335 212 325 220 325 231 c 0
 325 239 326 244 327 248 c 2
 333 285 l 1
 206 285 l 1
 161 67 l 1
 412 67 l 1
 434 158 l 2
 442 190 451 204 472 204 c 0
 493 204 503 195 503 175 c 0
 503 168 502 160 500 150 c 2
 476 42 l 2
 470 13 463 0 420 0 c 2
 19 0 l 2
EndSplineSet
EndChar
StartChar: F
Encoding: 70 70 38
Width: 602
Flags: MW
HStem: 0 67<32.5 109 57 109 184 272> 285 58<241 356 229 366> 512 67<137 566 162 200 276 276 276 533>
VStem: 12 597<19 556>
LayerCount: 2
Fore
SplineSet
286 67 m 2
 306 67 316 58 316 40 c 0
 316 15 301 0 272 0 c 2
 42 0 l 2
 23 0 12 10 12 28 c 0
 12 53 28 67 57 67 c 2
 109 67 l 1
 200 512 l 1
 147 512 l 2
 127 512 117 521 117 539 c 0
 117 564 133 579 162 579 c 2
 566 579 l 2
 593 579 609 566 609 546 c 0
 609 543 609 537 607 529 c 2
 582 425 l 2
 573 388 565 379 541 379 c 0
 521 379 511 389 511 406 c 0
 511 412 513 421 515 432 c 2
 533 512 l 1
 276 512 l 1
 241 343 l 1
 366 343 l 1
 375 377 l 2
 381 401 385 417 409 417 c 0
 426 417 436 409 436 394 c 0
 436 388 434 377 431 361 c 2
 409 254 l 2
 403 224 401 212 375 212 c 0
 358 212 348 220 348 231 c 0
 348 239 349 244 350 248 c 2
 356 285 l 1
 229 285 l 1
 184 67 l 1
 286 67 l 2
EndSplineSet
EndChar
StartChar: G
Encoding: 71 71 39
Width: 602
Flags: MW
HStem: -15 66<231.5 295> 200 64<322.5 518 351 437 512 512 512 518 518 523> 530 66<335.5 400.5 327.5 401.5>
VStem: 38 86<166 257.5 166 258>
LayerCount: 2
Fore
SplineSet
513 562 m 1
 524 580 534 588 552 588 c 0
 570 588 581 578 581 561 c 0
 581 558 581 555 580 551 c 2
 560 449 l 2
 554 417 550 401 523 401 c 0
 478 401 487 430 477 471 c 0
 468 509 431 530 372 530 c 0
 299 530 244 500 196 434 c 0
 150 371 124 294 124 221 c 0
 124 111 180 51 283 51 c 0
 328 51 370 61 413 80 c 1
 437 200 l 1
 336 200 l 2
 309 200 300 203 300 221 c 0
 300 259 318 264 351 264 c 2
 518 264 l 2
 553 264 564 261 564 241 c 0
 564 206 553 200 523 200 c 2
 512 200 l 1
 483 53 l 2
 478 30 473 28 439 15 c 0
 387 -4 324 -15 266 -15 c 0
 126 -15 38 72 38 211 c 0
 38 305 73 403 132 476 c 0
 196 555 278 596 377 596 c 0
 424 596 467 584 513 562 c 1
EndSplineSet
EndChar
StartChar: H
Encoding: 72 72 40
Width: 602
Flags: MW
HStem: 0 67<9.5 62 34 62 138 161 334 368 444 462> 273 64<195 412 181 426> 512 67<114 282 139 157 233 233 233 267 440 463 539 539 539 567>
VStem: -11 623<19 560>
LayerCount: 2
Fore
SplineSet
426 337 m 1
 463 512 l 1
 425 512 l 2
 405 512 395 521 395 539 c 0
 395 564 411 579 440 579 c 2
 582 579 l 2
 601 579 612 569 612 551 c 0
 612 526 596 512 567 512 c 2
 539 512 l 1
 444 67 l 1
 477 67 l 2
 497 67 507 58 507 40 c 0
 507 15 491 0 462 0 c 2
 319 0 l 2
 300 0 289 10 289 28 c 0
 289 53 305 67 334 67 c 2
 368 67 l 1
 412 273 l 1
 181 273 l 1
 138 67 l 1
 176 67 l 2
 196 67 206 58 206 40 c 0
 206 15 190 0 161 0 c 2
 19 0 l 2
 0 0 -11 10 -11 28 c 0
 -11 53 5 67 34 67 c 2
 62 67 l 1
 157 512 l 1
 124 512 l 2
 104 512 94 521 94 539 c 0
 94 564 110 579 139 579 c 2
 282 579 l 2
 301 579 311 569 311 551 c 0
 311 526 296 512 267 512 c 2
 233 512 l 1
 195 337 l 1
 426 337 l 1
EndSplineSet
EndChar
StartChar: I
Encoding: 73 73 41
Width: 602
Flags: MW
HStem: 0 67<65.5 213 89 213 289 406> 512 67<170 526 195 309 384 384 384 511>
VStem: 45 511<19 560>
LayerCount: 2
Fore
SplineSet
289 67 m 1
 420 67 l 2
 440 67 450 58 450 40 c 0
 450 15 435 0 406 0 c 2
 75 0 l 2
 56 0 45 10 45 28 c 0
 45 53 60 67 89 67 c 2
 213 67 l 1
 309 512 l 1
 180 512 l 2
 160 512 150 521 150 539 c 0
 150 564 166 579 195 579 c 2
 526 579 l 2
 545 579 556 569 556 551 c 0
 556 526 540 512 511 512 c 2
 384 512 l 1
 289 67 l 1
EndSplineSet
EndChar
StartChar: J
Encoding: 74 74 42
Width: 602
Flags: MW
HStem: -15 61<182.5 270 182.5 291> 512 67<279 607 303 437 513 513 513 593>
VStem: 27 610<42.5 560>
LayerCount: 2
Fore
SplineSet
445 193 m 2
 414 50 367 -15 215 -15 c 0
 106 -15 27 31 27 54 c 0
 27 56 28 68 32 87 c 2
 60 215 l 2
 64 234 69 243 92 243 c 0
 114 243 122 234 122 215 c 0
 122 200 116 175 116 139 c 0
 116 75 145 46 220 46 c 0
 320 46 349 97 373 210 c 2
 437 512 l 1
 289 512 l 2
 269 512 259 521 259 539 c 0
 259 564 274 579 303 579 c 2
 607 579 l 2
 626 579 637 569 637 551 c 0
 637 526 622 512 593 512 c 2
 513 512 l 1
 445 193 l 2
EndSplineSet
EndChar
StartChar: K
Encoding: 75 75 43
Width: 602
Flags: MW
HStem: 0 67<17.5 92 42 92 168 198 473 488> 512 67<122 322 147 185 261 261 261 307 449 454 549 549 549 572>
VStem: -2 619<19 561>
LayerCount: 2
Fore
SplineSet
27 0 m 2
 8 0 -2 10 -2 28 c 0
 -2 53 13 67 42 67 c 2
 92 67 l 1
 185 512 l 1
 132 512 l 2
 112 512 103 521 103 539 c 0
 103 564 118 579 147 579 c 2
 322 579 l 2
 341 579 351 569 351 551 c 0
 351 526 336 512 307 512 c 2
 261 512 l 1
 219 310 l 1
 454 512 l 1
 434 512 l 2
 414 512 405 521 405 539 c 0
 405 564 420 579 449 579 c 2
 581 579 l 2
 606 579 617 571 617 551 c 0
 617 526 601 512 572 512 c 2
 549 512 l 1
 332 327 l 1
 398 302 429 215 473 67 c 1
 502 67 l 2
 528 67 535 62 535 40 c 0
 535 12 521 0 488 0 c 2
 439 0 l 2
 387 0 404 72 351 194 c 0
 331 240 303 267 266 275 c 1
 198 218 l 1
 168 67 l 1
 213 67 l 2
 233 67 243 58 243 40 c 0
 243 15 227 0 198 0 c 2
 27 0 l 2
EndSplineSet
EndChar
StartChar: L
Encoding: 76 76 44
Width: 602
Flags: MW
HStem: 0 67<12.5 116 36 116 191 445> 512 67<117 402 142 211 287 287 287 387>
VStem: -8 558<19 237>
LayerCount: 2
Fore
SplineSet
191 67 m 1
 445 67 l 1
 475 197 l 2
 484 237 488 254 517 254 c 0
 541 254 550 246 550 228 c 0
 550 224 549 218 548 212 c 2
 513 51 l 2
 503 4 497 0 450 0 c 2
 22 0 l 2
 3 0 -8 10 -8 28 c 0
 -8 53 7 67 36 67 c 2
 116 67 l 1
 211 512 l 1
 127 512 l 2
 107 512 97 521 97 539 c 0
 97 564 113 579 142 579 c 2
 402 579 l 2
 421 579 431 569 431 551 c 0
 431 526 416 512 387 512 c 2
 287 512 l 1
 191 67 l 1
EndSplineSet
EndChar
StartChar: M
Encoding: 77 77 45
Width: 602
Flags: MW
HStem: 0 67<-15.5 36 8 36 107 140 371 413 487 500> 512 67<115 216 136 143 569 569 569 597>
VStem: -36 665<19 560>
LayerCount: 2
Fore
SplineSet
107 67 m 1
 155 67 l 2
 175 67 185 58 185 40 c 0
 185 15 169 0 140 0 c 2
 -6 0 l 2
 -25 0 -36 10 -36 28 c 0
 -36 53 -21 67 8 67 c 2
 36 67 l 1
 143 512 l 1
 127 512 l 2
 103 512 95 517 95 537 c 0
 95 563 111 579 136 579 c 2
 216 579 l 2
 241 579 256 564 259 534 c 2
 291 219 l 1
 452 523 l 2
 475 566 487 579 522 579 c 2
 602 579 l 2
 623 579 629 570 629 550 c 0
 629 525 617 512 597 512 c 2
 569 512 l 1
 487 67 l 1
 515 67 l 2
 535 67 545 58 545 40 c 0
 545 15 529 0 500 0 c 2
 356 0 l 2
 337 0 327 10 327 28 c 0
 327 53 342 67 371 67 c 2
 413 67 l 1
 497 505 l 1
 339 208 l 2
 322 176 315 170 284 170 c 0
 255 170 243 177 239 212 c 2
 209 505 l 1
 107 67 l 1
EndSplineSet
EndChar
StartChar: N
Encoding: 78 78 46
Width: 602
Flags: MW
HStem: 0 67<19.5 67 44 67 137 185> 512 67<108 212 133 159 451 494 564 564 564 588>
VStem: -1 634<19 560>
LayerCount: 2
Fore
SplineSet
137 67 m 1
 200 67 l 2
 220 67 230 58 230 40 c 0
 230 15 214 0 185 0 c 2
 29 0 l 2
 10 0 -1 10 -1 28 c 0
 -1 53 15 67 44 67 c 2
 67 67 l 1
 159 512 l 1
 118 512 l 2
 98 512 89 521 89 539 c 0
 89 564 104 579 133 579 c 2
 212 579 l 2
 247 579 254 577 264 547 c 2
 413 101 l 1
 494 512 l 1
 436 512 l 2
 416 512 406 521 406 539 c 0
 406 564 422 579 451 579 c 2
 603 579 l 2
 622 579 633 569 633 551 c 0
 633 526 617 512 588 512 c 2
 564 512 l 1
 465 40 l 2
 457 0 455 -8 418 -8 c 0
 390 -8 384 -7 367 43 c 2
 219 480 l 1
 137 67 l 1
EndSplineSet
EndChar
StartChar: O
Encoding: 79 79 47
Width: 602
Flags: MW
HStem: -14 64<211 291 211 300.5> 532 64<312.5 391.5>
VStem: 22 85<166 258 166 260.5> 496 84<325.5 417>
LayerCount: 2
Fore
SplineSet
351 596 m 0
 491 596 580 508 580 362 c 0
 580 276 550 188 495 113 c 0
 434 30 349 -14 252 -14 c 0
 109 -14 22 73 22 218 c 0
 22 303 51 393 106 467 c 0
 167 551 253 596 351 596 c 0
345 532 m 0
 280 532 223 498 175 431 c 0
 129 367 107 297 107 219 c 0
 107 113 164 50 258 50 c 0
 324 50 378 83 427 152 c 0
 474 217 496 287 496 364 c 0
 496 470 438 532 345 532 c 0
EndSplineSet
EndChar
StartChar: P
Encoding: 80 80 48
Width: 602
Flags: MW
HStem: 0 67<25.5 109 50 109 185 276> 215 62<216 316 229 316 316 324> 512 67<130 373 155 204 279 373 373 392 279 279>
VStem: 493 84<374 457.5>
LayerCount: 2
Fore
SplineSet
216 215 m 1
 185 67 l 1
 291 67 l 2
 311 67 321 58 321 40 c 0
 321 15 305 0 276 0 c 2
 35 0 l 2
 16 0 5 10 5 28 c 0
 5 53 21 67 50 67 c 2
 109 67 l 1
 204 512 l 1
 140 512 l 2
 120 512 111 521 111 539 c 0
 111 564 126 579 155 579 c 2
 373 579 l 2
 439 579 488 578 526 551 c 0
 558 528 577 488 577 440 c 0
 577 298 491 215 324 215 c 2
 216 215 l 1
279 512 m 1
 229 277 l 1
 316 277 l 2
 433 277 493 321 493 427 c 0
 493 488 460 512 392 512 c 2
 279 512 l 1
EndSplineSet
EndChar
StartChar: Q
Encoding: 81 81 49
Width: 602
Flags: W
HStem: -125 63<356.5 387 356.5 390> -94 54<234.5 237.5> -15 65<245 291 211 301> 532 64<312.5 391.5>
VStem: 22 85<166 258 166 260.5> 496 84<325.5 417>
LayerCount: 2
Fore
SplineSet
345 532 m 0xbc
 280 532 223 498 175 431 c 0
 129 367 107 297 107 219 c 0
 107 113 164 50 258 50 c 0
 324 50 378 83 427 152 c 0
 474 217 496 287 496 364 c 0
 496 470 438 532 345 532 c 0xbc
142 -59 m 1x7c
 186 -47 221 -40 248 -40 c 0x7c
 297 -40 340 -62 373 -62 c 0
 401 -62 422 -44 438 -44 c 0
 449 -44 460 -55 460 -69 c 0
 460 -98 416 -125 364 -125 c 0xbc
 310 -125 266 -94 209 -94 c 0
 144 -94 110 -127 87 -127 c 0
 75 -127 62 -114 62 -98 c 0
 62 -89 69 -75 84 -63 c 2
 158 -1 l 1
 67 36 22 110 22 218 c 0
 22 303 51 393 106 467 c 0
 167 550 253 596 350 596 c 0
 491 596 580 508 580 362 c 0
 580 276 550 189 495 113 c 0
 435 31 348 -15 254 -15 c 0
 236 -15 217 -13 198 -10 c 1
 142 -59 l 1x7c
EndSplineSet
EndChar
StartChar: R
Encoding: 82 82 50
Width: 602
Flags: MW
HStem: 0 67<11.5 81 36 81 156 191 481 498> 249 61<208 262 195 303> 512 67<117 344 141 175 251 344 344 363 251 251>
VStem: 464 81<401 459.5>
LayerCount: 2
Fore
SplineSet
81 67 m 1
 175 512 l 1
 127 512 l 2
 107 512 97 521 97 539 c 0
 97 564 112 579 141 579 c 2
 344 579 l 2
 474 579 545 555 545 450 c 0
 545 352 483 275 384 259 c 1
 408 237 418 210 431 181 c 2
 481 67 l 1
 513 67 l 2
 533 67 542 58 542 40 c 0
 542 15 527 0 498 0 c 2
 446 0 l 2
 430 0 420 12 409 36 c 2
 339 193 l 2
 320 236 310 249 262 249 c 2
 195 249 l 1
 156 67 l 1
 206 67 l 2
 226 67 236 58 236 40 c 0
 236 15 220 0 191 0 c 2
 21 0 l 2
 2 0 -8 10 -8 28 c 0
 -8 53 7 67 36 67 c 2
 81 67 l 1
251 512 m 1
 208 310 l 1
 303 310 l 2
 410 310 464 353 464 431 c 0
 464 488 431 512 363 512 c 2
 251 512 l 1
EndSplineSet
EndChar
StartChar: S
Encoding: 83 83 51
Width: 602
Flags: MW
HStem: -14 63<253 327 240.5 359> 531 65<315 393>
VStem: 139 77<384 447.5 381 458.5> 437 80<137 198>
LayerCount: 2
Fore
SplineSet
122 20 m 1
 110 -9 102 -20 77 -20 c 0
 60 -20 46 -7 46 9 c 0
 46 14 46 21 48 31 c 2
 69 151 l 2
 74 181 85 196 103 196 c 0
 155 196 139 166 148 125 c 0
 158 77 203 49 278 49 c 0
 376 49 437 104 437 170 c 0
 437 226 403 242 338 251 c 0
 274 260 223 264 184 300 c 0
 154 327 139 363 139 405 c 0
 139 512 233 596 379 596 c 0
 420 596 459 587 498 569 c 1
 504 591 514 597 535 597 c 0
 555 597 566 587 566 571 c 0
 566 567 565 561 564 554 c 2
 550 460 l 2
 545 424 541 412 511 412 c 0
 480 412 482 424 476 458 c 0
 468 507 429 531 357 531 c 0
 273 531 216 480 216 415 c 0
 216 347 261 341 337 330 c 0
 457 312 517 281 517 180 c 0
 517 68 429 -14 289 -14 c 0
 217 -14 160 -1 122 20 c 1
EndSplineSet
EndChar
StartChar: T
Encoding: 84 84 52
Width: 602
Flags: MW
HStem: 0 67<104.5 222 129 222 297 373> 510 69<178 316 178 178 392 527 392 392>
VStem: 71 533<341 563>
LayerCount: 2
Fore
SplineSet
392 510 m 1
 297 67 l 1
 387 67 l 2
 407 67 417 58 417 40 c 0
 417 15 402 0 373 0 c 2
 114 0 l 2
 95 0 84 10 84 28 c 0
 84 53 100 67 129 67 c 2
 222 67 l 1
 316 510 l 1
 178 510 l 1
 140 359 l 2
 134 336 123 325 103 325 c 0
 82 325 71 333 71 349 c 0
 71 353 72 357 73 361 c 2
 115 543 l 2
 122 571 132 579 167 579 c 2
 566 579 l 2
 593 579 604 573 604 553 c 0
 604 550 603 545 602 539 c 2
 569 358 l 2
 565 336 552 324 532 324 c 0
 510 324 501 332 501 350 c 0
 501 353 501 357 502 361 c 2
 527 510 l 1
 392 510 l 1
EndSplineSet
EndChar
StartChar: U
Encoding: 85 85 53
Width: 602
Flags: MW
HStem: -15 66<230.5 315.5 230.5 321> 512 67<114 283 139 148 224 224 224 268 454 489 561 561 561 591>
VStem: 83 74<121 162 121 162>
LayerCount: 2
Fore
SplineSet
148 512 m 1
 124 512 l 2
 104 512 94 522 94 540 c 0
 94 566 109 579 139 579 c 2
 283 579 l 2
 303 579 312 570 312 552 c 0
 312 527 297 512 268 512 c 2
 224 512 l 1
 165 220 l 2
 159 191 157 169 157 155 c 0
 157 87 195 51 266 51 c 0
 365 51 408 107 432 226 c 2
 489 512 l 1
 440 512 l 2
 420 512 410 522 410 540 c 0
 410 566 424 579 454 579 c 2
 598 579 l 2
 618 579 627 570 627 552 c 0
 627 529 611 512 591 512 c 2
 561 512 l 1
 495 194 l 2
 466 54 386 -15 256 -15 c 0
 145 -15 83 45 83 151 c 0
 83 173 86 200 92 232 c 2
 148 512 l 1
EndSplineSet
EndChar
StartChar: V
Encoding: 86 86 54
Width: 607
Flags: MW
HStem: -8 20 512 67<85 267 111 112 187 187 187 253 456 509 586 586 586 608>
VStem: 67 580<539 552>
LayerCount: 2
Fore
SplineSet
308 33 m 2
 290 2 284 -8 241 -8 c 0
 209 -8 201 1 195 33 c 2
 112 512 l 1
 93 512 l 2
 77 512 67 522 67 539 c 0
 67 565 82 579 111 579 c 2
 267 579 l 2
 286 579 297 569 297 551 c 0
 297 526 282 512 253 512 c 2
 187 512 l 1
 261 81 l 1
 509 512 l 1
 441 512 l 2
 421 512 411 521 411 539 c 0
 411 564 427 579 456 579 c 2
 617 579 l 2
 637 579 647 569 647 551 c 0
 647 527 631 512 608 512 c 2
 586 512 l 1
 308 33 l 2
EndSplineSet
EndChar
StartChar: W
Encoding: 87 87 55
Width: 602
Flags: MW
HStem: -6 20 512 67<78 262 83 262 171 171 171 247 462 525 595 595 595 620>
VStem: 61 589<539 552>
LayerCount: 2
Fore
SplineSet
162 36 m 2
 146 2 141 -6 106 -6 c 0
 78 -6 71 2 71 23 c 0
 71 26 71 29 71 32 c 2
 98 512 l 1
 83 512 l 2
 73 512 61 522 61 539 c 0
 61 565 77 579 106 579 c 2
 262 579 l 2
 281 579 291 569 291 551 c 0
 291 526 276 512 247 512 c 2
 171 512 l 1
 138 104 l 1
 273 387 l 2
 291 424 302 440 320 440 c 2
 342 440 l 2
 362 440 366 432 368 407 c 2
 396 103 l 1
 525 512 l 1
 447 512 l 2
 427 512 417 521 417 539 c 0
 417 564 433 579 462 579 c 2
 621 579 l 2
 641 579 650 569 650 551 c 0
 650 527 632 512 620 512 c 2
 595 512 l 1
 429 36 l 2
 420 10 419 -6 384 -6 c 0
 357 -6 349 4 346 32 c 2
 315 359 l 1
 162 36 l 2
EndSplineSet
EndChar
StartChar: X
Encoding: 88 88 56
Width: 602
Flags: MW
HStem: 0 67<22 55 39 55 145 168 348 387 469 470> 512 67<136.5 287 144 287 245 245 245 273 457 468 556 556 556 573>
VStem: 3 606<19.5 560.5>
LayerCount: 2
Fore
SplineSet
183 67 m 2
 202 67 212 58 212 40 c 0
 212 15 197 0 168 0 c 2
 32 0 l 2
 12 0 3 10 3 29 c 0
 3 54 16 67 39 67 c 2
 55 67 l 1
 265 300 l 1
 164 512 l 1
 144 512 l 2
 129 512 121 520 121 537 c 0
 121 568 135 579 167 579 c 2
 287 579 l 2
 306 579 317 569 317 551 c 0
 317 526 302 512 273 512 c 2
 245 512 l 1
 323 346 l 1
 468 512 l 1
 443 512 l 2
 423 512 413 521 413 539 c 0
 413 564 428 579 457 579 c 2
 579 579 l 2
 599 579 609 570 609 551 c 0
 609 528 592 512 573 512 c 2
 556 512 l 1
 353 290 l 1
 469 67 l 1
 490 67 l 2
 504 67 514 57 514 40 c 0
 514 15 499 0 470 0 c 2
 333 0 l 2
 313 0 304 10 304 28 c 0
 304 53 319 67 348 67 c 2
 387 67 l 1
 299 241 l 1
 145 67 l 1
 183 67 l 2
EndSplineSet
EndChar
StartChar: Y
Encoding: 89 89 57
Width: 602
Flags: MW
HStem: 0 67<106.5 225 131 225 300 377> 512 67<123.5 298 154 164 242 242 242 283 467 479 560 560 560 585>
VStem: 86 535<19 560.5>
LayerCount: 2
Fore
SplineSet
164 512 m 1
 131 512 l 2
 116 512 108 520 108 537 c 0
 108 568 122 579 154 579 c 2
 298 579 l 2
 317 579 328 569 328 551 c 0
 328 526 312 512 283 512 c 2
 242 512 l 1
 314 298 l 1
 479 512 l 1
 452 512 l 2
 432 512 423 521 423 539 c 0
 423 564 438 579 467 579 c 2
 591 579 l 2
 611 579 621 570 621 551 c 0
 621 528 604 512 585 512 c 2
 560 512 l 1
 334 226 l 1
 300 67 l 1
 391 67 l 2
 411 67 421 58 421 40 c 0
 421 15 406 0 377 0 c 2
 116 0 l 2
 97 0 86 10 86 28 c 0
 86 53 102 67 131 67 c 2
 225 67 l 1
 259 227 l 1
 164 512 l 1
EndSplineSet
EndChar
StartChar: Z
Encoding: 90 90 58
Width: 602
Flags: MW
HStem: 0 67<90 378 158 378 158 384> 512 67<251 455 251 251>
VStem: 57 501<22 555>
LayerCount: 2
Fore
SplineSet
378 67 m 1
 411 195 l 2
 419 228 429 240 454 240 c 0
 472 240 483 230 483 216 c 0
 483 213 482 207 479 195 c 2
 441 37 l 2
 432 0 422 0 384 0 c 2
 106 0 l 2
 74 0 57 10 57 34 c 0
 57 60 75 76 100 105 c 2
 455 512 l 1
 251 512 l 1
 222 397 l 2
 214 364 204 352 178 352 c 0
 160 352 149 361 149 375 c 0
 149 377 151 384 154 396 c 2
 189 542 l 2
 198 579 208 579 245 579 c 2
 509 579 l 2
 541 579 558 566 558 544 c 0
 558 524 543 507 523 484 c 2
 158 67 l 1
 378 67 l 1
EndSplineSet
EndChar
StartChar: bracketleft
Encoding: 91 91 59
Width: 602
Flags: MW
HStem: -182 60<207 334 247 308> 519 60<387 460 387 387>
VStem: 165 346
LayerCount: 2
Fore
SplineSet
334 -122 m 2
 350 -122 360 -132 360 -148 c 0
 360 -170 342 -182 308 -182 c 2
 227 -182 l 2
 187 -182 165 -179 165 -153 c 0
 165 -149 166 -144 167 -139 c 2
 316 542 l 2
 321 566 337 579 361 579 c 2
 486 579 l 2
 502 579 511 569 511 553 c 0
 511 532 494 519 460 519 c 2
 387 519 l 1
 247 -122 l 1
 334 -122 l 2
EndSplineSet
EndChar
StartChar: bracketright
Encoding: 93 93 61
Width: 602
Flags: MW
HStem: -182 60<100 207 134 207 134 233> 519 60<252 368 286 348>
VStem: 83 346
LayerCount: 2
Fore
SplineSet
260 519 m 2
 244 519 235 528 235 544 c 0
 235 566 252 579 286 579 c 2
 368 579 l 2
 408 579 429 575 429 549 c 0
 429 545 428 540 427 535 c 2
 279 -146 l 2
 274 -170 257 -182 233 -182 c 2
 108 -182 l 2
 92 -182 83 -173 83 -157 c 0
 83 -136 100 -122 134 -122 c 2
 207 -122 l 1
 348 519 l 1
 260 519 l 2
EndSplineSet
EndChar
StartChar: grave
Encoding: 193 96 123
Width: 602
Flags: MW
HStem: 515 143
VStem: 193 272<542 603.5>
LayerCount: 2
Fore
SplineSet
455 515 m 1
 207 583 l 2
 199 585 193 593 193 602 c 0
 193 605 194 608 195 611 c 2
 207 642 l 2
 212 654 220 660 228 660 c 0
 231 660 233 659 235 658 c 2
 465 542 l 1
 455 515 l 1
EndSplineSet
EndChar
StartChar: a
Encoding: 97 97 65
Width: 602
Flags: W
HStem: -9 71<188.5 232> 0 67<403.5 494 447 481> 233 59<254 326 231 327> 397 66<308.5 371.5>
VStem: 54 79<108 156.5 108 168>
LayerCount: 2
Fore
SplineSet
420 0 m 2x78
 387 0 375 3 375 33 c 0
 375 44 378 59 383 81 c 1
 329 21 265 -9 199 -9 c 0xa8
 111 -9 54 44 54 121 c 0
 54 215 154 292 308 292 c 0
 344 292 380 286 418 275 c 1
 424 299 426 316 426 326 c 0
 426 373 398 397 345 397 c 0
 272 397 220 356 189 356 c 0
 170 356 157 368 157 384 c 0
 157 423 244 463 354 463 c 0
 453 463 503 417 503 346 c 0
 503 334 502 321 499 308 c 2
 447 67 l 1
 494 67 l 2
 514 67 523 57 523 39 c 0
 523 12 510 0 481 0 c 2
 420 0 l 2x78
405 217 m 1xa8
 373 227 343 233 311 233 c 0
 197 233 133 185 133 128 c 0
 133 88 162 62 215 62 c 0
 300 62 387 122 400 190 c 2
 405 217 l 1xa8
EndSplineSet
EndChar
StartChar: b
Encoding: 98 98 66
Width: 602
Flags: W
HStem: -13 66<255 346.5 254.5 366> 0 67<10 62 34 62 34 83> 385 66<342 394.5> 572 67<127.5 229 152 168>
VStem: 480 81<201 300>
LayerCount: 2
Fore
SplineSet
200 381 m 1x50
 253 428 311 451 373 451 c 0
 486 451 561 377 561 260 c 0
 561 107 440 -13 292 -13 c 0xa8
 218 -13 166 12 133 62 c 1
 127 33 l 2
 122 9 109 0 83 0 c 2
 20 0 l 2
 0 0 -9 9 -9 27 c 0
 -9 53 5 67 34 67 c 2
 62 67 l 1
 168 572 l 1
 137 572 l 2
 118 572 108 581 108 600 c 0
 108 625 123 639 152 639 c 2
 229 639 l 2
 245 639 252 635 252 624 c 0
 252 621 252 618 251 615 c 2
 200 381 l 1x50
359 385 m 0xa8
 245 385 162 299 162 176 c 0
 162 102 215 53 294 53 c 0
 399 53 480 140 480 262 c 0
 480 338 430 385 359 385 c 0xa8
EndSplineSet
EndChar
StartChar: c
Encoding: 99 99 67
Width: 602
Flags: MW
HStem: -12 69<241 306.5 241 308.5> 395 68<292 373>
VStem: 64 82<152.5 246 152.5 263.5>
LayerCount: 2
Fore
SplineSet
500 404 m 1
 506 430 l 2
 510 447 520 455 539 455 c 0
 562 455 573 446 573 431 c 0
 573 428 573 426 572 423 c 2
 547 305 l 2
 541 279 530 266 505 266 c 0
 467 266 476 303 458 338 c 0
 439 373 399 395 347 395 c 0
 237 395 146 299 146 193 c 0
 146 112 199 57 283 57 c 0
 330 57 370 72 412 102 c 0
 441 123 460 141 482 141 c 0
 499 141 509 131 509 113 c 0
 509 100 494 78 461 54 c 0
 402 10 341 -12 276 -12 c 0
 144 -12 64 67 64 195 c 0
 64 332 190 463 355 463 c 0
 418 463 465 444 500 404 c 1
EndSplineSet
EndChar
StartChar: d
Encoding: 100 100 68
Width: 602
Flags: W
HStem: -11 66<208.5 264.5> 0 67<415.5 509 474 495> 398 66<257.5 346.5 236 349> 572 67<436.5 561 460 510>
VStem: 39 82<144.5 246.5 144.5 262>
LayerCount: 2
Fore
SplineSet
423 0 m 2x78
 408 0 400 5 400 15 c 0
 400 18 400 21 401 24 c 2
 415 73 l 1
 365 18 301 -11 228 -11 c 0xa8
 115 -11 39 63 39 183 c 0
 39 341 161 464 311 464 c 0
 382 464 433 442 470 389 c 1
 510 572 l 1
 446 572 l 2
 427 572 416 581 416 600 c 0
 416 625 431 639 460 639 c 2
 561 639 l 2
 580 639 591 629 591 613 c 0
 591 610 591 608 590 605 c 2
 474 67 l 1
 509 67 l 2
 528 67 539 58 539 39 c 0
 539 14 524 0 495 0 c 2
 423 0 l 2x78
121 187 m 0xa8
 121 102 169 55 248 55 c 0
 355 55 441 142 441 276 c 0
 441 350 388 398 310 398 c 0
 205 398 121 306 121 187 c 0xa8
EndSplineSet
EndChar
StartChar: e
Encoding: 101 101 69
Width: 602
Flags: MW
HStem: -12 64<239 308> 205 64<143 476 151 476 151 488> 399 64<299 386.5>
VStem: 64 79<145 188 188 205 145 264.5> 476 75<269 274 273 314.5>
LayerCount: 2
Fore
SplineSet
143 205 m 1
 143 196 143 189 143 187 c 0
 143 103 194 52 284 52 c 0
 390 52 448 119 492 119 c 0
 510 119 520 109 520 94 c 0
 520 78 500 59 460 37 c 0
 401 5 337 -12 279 -12 c 0
 145 -12 64 70 64 191 c 0
 64 338 190 463 348 463 c 0
 472 463 551 385 551 262 c 0
 551 208 531 205 488 205 c 2
 143 205 l 1
151 269 m 1
 476 269 l 1
 476 271 476 272 476 274 c 0
 476 355 430 399 343 399 c 0
 255 399 184 352 151 269 c 1
EndSplineSet
EndChar
StartChar: f
Encoding: 102 102 70
Width: 602
Flags: MW
HStem: 0 67<92 200 116 200 273 419> 369 67<171.5 277 196 264 196 337 351 504> 570 69<433.5 493>
VStem: 73 546<18 613>
LayerCount: 2
Fore
SplineSet
264 369 m 1
 181 369 l 2
 162 369 152 378 152 397 c 0
 152 422 167 436 196 436 c 2
 277 436 l 1
 284 467 l 2
 309 575 335 639 487 639 c 0
 578 639 619 630 619 596 c 0
 619 573 602 555 575 555 c 0
 547 555 513 570 473 570 c 0
 394 570 375 535 360 472 c 2
 351 436 l 1
 518 436 l 2
 537 436 548 427 548 408 c 0
 548 383 533 369 504 369 c 2
 337 369 l 1
 273 67 l 1
 434 67 l 2
 453 67 464 58 464 39 c 0
 464 14 448 0 419 0 c 2
 102 0 l 2
 82 0 73 9 73 27 c 0
 73 53 87 67 116 67 c 2
 200 67 l 1
 264 369 l 1
EndSplineSet
EndChar
StartChar: g
Encoding: 103 103 71
Width: 602
Flags: W
HStem: -195 74<205.5 271> 20 65<223 270> 384 67<524 554 524 524> 397 66<266 346.5 246 348>
VStem: 62 81<165.5 258.5 165.5 275>
LayerCount: 2
Fore
SplineSet
313 397 m 0x58
 219 397 143 315 143 202 c 0
 143 129 187 85 259 85 c 0
 347 85 429 170 429 287 c 0
 429 351 383 397 313 397 c 0x58
392 86 m 1xa0
 350 41 301 20 239 20 c 0
 142 20 62 87 62 200 c 0
 62 350 178 463 314 463 c 0x58
 379 463 430 437 457 391 c 1
 462 424 l 2
 465 442 474 451 486 451 c 2
 569 451 l 2
 588 451 598 442 598 423 c 0
 598 398 583 384 554 384 c 2
 524 384 l 1
 439 -15 l 2
 413 -138 341 -195 201 -195 c 0
 126 -195 91 -186 91 -152 c 0
 91 -130 112 -112 137 -112 c 0
 160 -112 188 -121 223 -121 c 0
 332 -121 367 -61 392 86 c 1xa0
EndSplineSet
EndChar
StartChar: h
Encoding: 104 104 72
Width: 602
Flags: MW
HStem: 0 67<36 88 61 88 160 176 362 389 461 477> 392 71<363 390> 572 67<155.5 256 179 195>
VStem: 442 75<338.5 347.5>
LayerCount: 2
Fore
SplineSet
461 67 m 1
 491 67 l 2
 510 67 521 58 521 39 c 0
 521 14 506 0 477 0 c 2
 347 0 l 2
 327 0 318 9 318 27 c 0
 318 53 333 67 362 67 c 2
 389 67 l 1
 435 284 l 2
 439 301 442 315 442 326 c 0
 442 369 415 392 365 392 c 0
 293 392 217 338 201 262 c 2
 160 67 l 1
 191 67 l 2
 210 67 220 58 220 39 c 0
 220 14 205 0 176 0 c 2
 46 0 l 2
 26 0 17 9 17 27 c 0
 17 53 32 67 61 67 c 2
 88 67 l 1
 195 572 l 1
 165 572 l 2
 146 572 135 581 135 600 c 0
 135 625 150 639 179 639 c 2
 256 639 l 2
 272 639 279 635 279 624 c 0
 279 621 279 618 278 615 c 2
 229 392 l 1
 281 439 335 463 391 463 c 0
 469 463 517 413 517 344 c 0
 517 333 516 321 513 309 c 2
 461 67 l 1
EndSplineSet
EndChar
StartChar: i
Encoding: 105 105 73
Width: 602
Flags: W
HStem: 0 67<76 247 100 247 319 459> 384 67<206.5 375 230 314> 544 126<389.5 399.5>
VStem: 57 447<26.5 40> 342 104<601.5 613>
LayerCount: 2
Fore
SplineSet
319 67 m 1xd0
 474 67 l 2
 493 67 504 58 504 39 c 0
 504 14 488 0 459 0 c 2
 86 0 l 2
 66 0 57 9 57 27 c 0
 57 53 71 67 100 67 c 2
 247 67 l 1
 314 384 l 1
 216 384 l 2
 197 384 186 393 186 412 c 0
 186 437 201 451 230 451 c 2
 375 451 l 2
 390 451 397 448 397 437 c 0
 397 435 397 432 396 428 c 2
 319 67 l 1xd0
411 670 m 0x28
 438 670 446 661 446 639 c 0
 446 564 421 544 378 544 c 0
 351 544 342 553 342 575 c 0
 342 651 368 670 411 670 c 0x28
EndSplineSet
EndChar
StartChar: j
Encoding: 106 106 74
Width: 602
Flags: W
HStem: -195 74<118.5 182> 384 67<140.5 430 165 369> 544 126<405.5 414.5>
VStem: 3 449 358 104<601.5 613>
LayerCount: 2
Fore
SplineSet
369 384 m 1xd0
 150 384 l 2
 131 384 120 393 120 412 c 0
 120 437 136 451 165 451 c 2
 430 451 l 2
 446 451 452 448 452 438 c 0
 452 435 452 432 451 428 c 2
 355 -15 l 2
 329 -136 250 -195 114 -195 c 0
 39 -195 3 -186 3 -152 c 0
 3 -130 25 -112 50 -112 c 0
 73 -112 101 -121 136 -121 c 0
 256 -121 276 -52 306 86 c 2
 369 384 l 1xd0
427 670 m 0x28
 454 670 462 661 462 639 c 0
 462 564 436 544 393 544 c 0
 366 544 358 553 358 575 c 0
 358 651 384 670 427 670 c 0x28
EndSplineSet
EndChar
StartChar: k
Encoding: 107 107 75
Width: 602
Flags: MW
HStem: 0 67<47 100 72 100 72 124 450 481> 387 64 572 67<166.5 267 191 206>
VStem: 28 546<18 434.5>
LayerCount: 2
Fore
SplineSet
212 265 m 1
 384 390 l 1
 363 393 355 400 355 416 c 0
 355 437 371 451 396 451 c 2
 544 451 l 2
 567 451 574 445 574 424 c 0
 574 390 545 393 514 387 c 0
 473 379 441 355 403 328 c 2
 312 264 l 1
 450 67 l 1
 495 67 l 2
 514 67 525 58 525 39 c 0
 525 14 510 0 481 0 c 2
 366 0 l 2
 341 0 326 13 326 32 c 0
 326 51 342 66 371 67 c 1
 259 226 l 1
 196 183 l 1
 166 40 l 2
 161 15 143 0 124 0 c 2
 57 0 l 2
 37 0 28 9 28 27 c 0
 28 53 43 67 72 67 c 2
 100 67 l 1
 206 572 l 1
 176 572 l 2
 157 572 146 581 146 600 c 0
 146 625 162 639 191 639 c 2
 267 639 l 2
 283 639 291 635 291 623 c 0
 291 621 291 618 290 615 c 2
 212 265 l 1
EndSplineSet
EndChar
StartChar: l
Encoding: 108 108 76
Width: 602
Flags: MW
HStem: 0 67<77 238 101 238 310 444> 572 67<221.5 406 245 345>
VStem: 58 431<26.5 40>
LayerCount: 2
Fore
SplineSet
310 67 m 1
 459 67 l 2
 478 67 489 58 489 39 c 0
 489 14 473 0 444 0 c 2
 87 0 l 2
 67 0 58 9 58 27 c 0
 58 53 72 67 101 67 c 2
 238 67 l 1
 345 572 l 1
 231 572 l 2
 212 572 201 581 201 600 c 0
 201 625 216 639 245 639 c 2
 406 639 l 2
 422 639 429 636 429 624 c 0
 429 621 429 618 428 615 c 2
 310 67 l 1
EndSplineSet
EndChar
StartChar: m
Encoding: 109 109 77
Width: 602
Flags: W
HStem: 0 67<-15 37 10 37 109 125 313 321 514 522> 384 67<64.5 151 89 105> 392 71<262 264.5>
VStem: 498 76<337 394.5>
LayerCount: 2
Fore
SplineSet
109 67 m 1xb0
 140 67 l 2
 159 67 169 58 169 39 c 0
 169 14 154 0 125 0 c 2
 -5 0 l 2
 -25 0 -34 9 -34 27 c 0
 -34 53 -19 67 10 67 c 2
 37 67 l 1
 105 384 l 1
 74 384 l 2
 55 384 44 393 44 412 c 0
 44 437 60 451 89 451 c 2
 151 451 l 2xc0
 168 451 178 444 178 433 c 0
 178 431 177 430 177 428 c 2
 172 400 l 1
 205 442 242 463 282 463 c 0
 326 463 355 438 360 394 c 1
 390 440 429 463 475 463 c 0
 534 463 574 423 574 366 c 0
 574 354 573 341 570 328 c 2
 514 67 l 1
 536 67 l 2
 555 67 566 58 566 39 c 0
 566 14 551 0 522 0 c 2
 458 0 l 2
 445 0 434 10 434 24 c 0
 434 26 434 29 435 31 c 2
 495 314 l 2
 497 322 498 332 498 342 c 0
 498 375 485 391 453 391 c 0
 412 391 375 357 361 293 c 2
 313 67 l 1
 335 67 l 2
 354 67 365 58 365 39 c 0
 365 14 350 0 321 0 c 2
 258 0 l 2
 245 0 234 10 234 24 c 0
 234 26 234 29 235 31 c 2
 293 303 l 2
 297 321 298 336 298 345 c 0
 298 375 279 392 250 392 c 0
 210 392 172 361 158 297 c 2
 109 67 l 1xb0
EndSplineSet
EndChar
StartChar: n
Encoding: 110 110 78
Width: 602
Flags: W
HStem: 0 67<36 88 61 88 160 176 362 389 461 477> 384 67<115.5 216 140 156> 392 71<363 390>
VStem: 442 79
LayerCount: 2
Fore
SplineSet
461 67 m 1xb0
 491 67 l 2
 510 67 521 58 521 39 c 0
 521 14 506 0 477 0 c 2
 347 0 l 2
 327 0 318 9 318 27 c 0
 318 53 333 67 362 67 c 2
 389 67 l 1
 435 284 l 2
 439 301 442 315 442 326 c 0
 442 369 415 392 365 392 c 0xb0
 293 392 217 338 201 262 c 2
 160 67 l 1
 191 67 l 2
 210 67 220 58 220 39 c 0
 220 14 205 0 176 0 c 2
 46 0 l 2
 26 0 17 9 17 27 c 0
 17 53 32 67 61 67 c 2
 88 67 l 1
 156 384 l 1
 125 384 l 2
 106 384 95 393 95 412 c 0
 95 437 111 451 140 451 c 2
 216 451 l 2xc0
 232 451 240 447 240 437 c 0
 240 434 240 431 239 428 c 2
 229 392 l 1
 281 439 335 463 391 463 c 0
 469 463 517 413 517 344 c 0
 517 333 516 321 513 309 c 2
 461 67 l 1xb0
EndSplineSet
EndChar
StartChar: o
Encoding: 111 111 79
Width: 602
Flags: MW
HStem: -12 64<229 331 229 351> 398 66<271 372.5>
VStem: 48 81<147.5 247.5 147.5 264.5> 472 82<202.5 303>
LayerCount: 2
Fore
SplineSet
48 189 m 0
 48 340 171 464 333 464 c 0
 468 464 554 384 554 263 c 0
 554 112 433 -12 269 -12 c 0
 135 -12 48 67 48 189 c 0
328 398 m 0
 214 398 129 304 129 191 c 0
 129 104 184 52 274 52 c 0
 388 52 472 144 472 261 c 0
 472 345 417 398 328 398 c 0
EndSplineSet
EndChar
StartChar: p
Encoding: 112 112 80
Width: 602
Flags: W
HStem: -194 67<-36 21 -11 21 93 186> -1 66<258 349.5 257.5 369> 384 67<85.5 191 109 130> 397 65<344 395>
VStem: 483 81<212.5 310.5>
LayerCount: 2
Fore
SplineSet
483 271 m 0xd8
 483 350 434 397 356 397 c 0
 253 397 166 313 166 187 c 0
 166 113 218 65 297 65 c 0
 402 65 483 154 483 271 c 0xd8
93 -127 m 1
 201 -127 l 2
 220 -127 231 -137 231 -156 c 0
 231 -181 215 -194 186 -194 c 2
 -26 -194 l 2
 -46 -194 -55 -185 -55 -167 c 0
 -55 -141 -40 -127 -11 -127 c 2
 21 -127 l 1
 130 384 l 1
 95 384 l 2
 76 384 65 393 65 412 c 0
 65 437 80 451 109 451 c 2
 191 451 l 2xa0
 207 451 215 447 215 437 c 0
 215 435 214 432 213 428 c 2
 203 392 l 1
 256 439 313 462 375 462 c 0
 488 462 564 388 564 271 c 0
 564 118 443 -1 295 -1 c 0
 221 -1 169 24 136 74 c 1
 93 -127 l 1
EndSplineSet
EndChar
StartChar: q
Encoding: 113 113 81
Width: 602
Flags: W
HStem: -194 67<252 356 277 356 428 444> -2 65<205 258> 384 67<536 566 536 536> 398 66<252.5 342 229.5 346>
VStem: 35 82<151 249.5 151 262.5>
LayerCount: 2
Fore
SplineSet
306 398 m 0xd8
 199 398 117 308 117 191 c 0
 117 111 166 63 244 63 c 0
 352 63 438 155 438 274 c 0
 438 348 386 398 306 398 c 0xd8
356 -127 m 1xa0
 397 67 l 1
 350 20 293 -2 223 -2 c 0
 110 -2 35 73 35 188 c 0
 35 337 153 464 306 464 c 0xd8
 378 464 431 440 465 389 c 1
 474 424 l 2
 478 441 483 451 498 451 c 2
 581 451 l 2
 600 451 611 442 611 423 c 0
 611 398 595 384 566 384 c 2
 536 384 l 1
 428 -127 l 1
 458 -127 l 2
 477 -127 488 -137 488 -156 c 0
 488 -181 473 -194 444 -194 c 2
 262 -194 l 2
 242 -194 233 -185 233 -167 c 0
 233 -141 248 -127 277 -127 c 2
 356 -127 l 1xa0
EndSplineSet
EndChar
StartChar: r
Encoding: 114 114 82
Width: 602
Flags: W
HStem: 0 67<61 157 85 157 228 382> 383 68 383 80<475.5 489>
VStem: 42 556<18 420.5>
LayerCount: 2
Fore
SplineSet
288 347 m 1xd0
 366 425 440 463 511 463 c 0x20
 567 463 598 438 598 403 c 0
 598 375 574 352 547 352 c 0
 523 352 508 383 470 383 c 0
 414 383 353 343 272 269 c 1
 228 67 l 1
 397 67 l 2
 416 67 426 58 426 39 c 0
 426 14 411 0 382 0 c 2
 71 0 l 2
 51 0 42 9 42 27 c 0
 42 53 56 67 85 67 c 2
 157 67 l 1
 224 384 l 1
 150 384 l 2
 131 384 121 393 121 412 c 0
 121 437 136 451 165 451 c 2
 285 451 l 2
 301 451 308 448 308 437 c 0
 308 434 308 431 307 428 c 2
 288 347 l 1xd0
EndSplineSet
EndChar
StartChar: s
Encoding: 115 115 83
Width: 602
Flags: MW
HStem: -11 59<269.5 337 262 363> 402 62<280 338.5>
VStem: 124 76<298 350.5 298 357> 426 77<111.5 168>
LayerCount: 2
Fore
SplineSet
145 14 m 1
 120 -1 103 -11 88 -11 c 0
 70 -11 60 0 60 17 c 0
 60 20 61 27 63 35 c 2
 87 129 l 2
 93 151 101 162 118 162 c 0
 152 162 144 125 159 101 c 0
 178 70 228 48 296 48 c 0
 378 48 426 85 426 138 c 0
 426 198 373 186 262 195 c 0
 170 203 124 241 124 311 c 0
 124 403 196 464 327 464 c 0
 396 464 437 441 460 441 c 0
 480 441 488 460 508 460 c 0
 525 460 535 450 535 433 c 0
 535 430 535 427 534 423 c 2
 517 340 l 2
 512 315 501 303 484 303 c 0
 453 303 449 340 419 367 c 0
 391 392 360 402 317 402 c 0
 243 402 200 370 200 331 c 0
 200 265 266 274 368 266 c 0
 459 259 503 222 503 148 c 0
 503 55 430 -11 296 -11 c 0
 243 -11 191 -2 145 14 c 1
EndSplineSet
EndChar
StartChar: t
Encoding: 116 116 84
Width: 602
Flags: MW
HStem: -9 68<259.5 299.5> 355 69<102 198 130 184 130 260 275 446>
VStem: 137 77<101.5 112.5>
LayerCount: 2
Fore
SplineSet
184 355 m 1
 115 355 l 2
 89 355 77 360 77 383 c 0
 77 410 95 424 130 424 c 2
 198 424 l 1
 224 541 l 2
 231 574 246 591 268 591 c 0
 287 591 303 575 303 560 c 0
 303 557 302 549 299 535 c 2
 275 424 l 1
 461 424 l 2
 487 424 499 418 499 395 c 0
 499 368 481 355 446 355 c 2
 260 355 l 1
 219 155 l 2
 216 141 214 129 214 121 c 0
 214 82 238 59 281 59 c 0
 372 59 435 108 468 108 c 0
 490 108 504 96 504 80 c 0
 504 53 484 41 441 25 c 0
 382 2 326 -9 273 -9 c 0
 184 -9 137 30 137 105 c 0
 137 120 139 137 143 156 c 2
 184 355 l 1
EndSplineSet
EndChar
StartChar: u
Encoding: 117 117 85
Width: 602
Flags: W
HStem: -12 71 0 67<387 487 456 472> 384 67<104.5 204 128 144 409 452>
VStem: 87 76<102.5 105.5>
LayerCount: 2
Fore
SplineSet
394 384 m 2xb0
 375 384 364 393 364 412 c 0
 364 437 380 451 409 451 c 2
 511 451 l 2
 527 451 534 448 534 437 c 0
 534 434 534 431 533 428 c 2
 456 67 l 1
 487 67 l 2
 506 67 516 58 516 39 c 0
 516 14 501 0 472 0 c 2
 395 0 l 2x60
 379 0 371 4 371 15 c 0
 371 17 372 20 373 24 c 2
 383 59 l 1
 330 11 277 -12 214 -12 c 0
 140 -12 87 36 87 98 c 0
 87 113 89 128 92 143 c 2
 144 384 l 1
 114 384 l 2
 95 384 84 393 84 412 c 0
 84 437 99 451 128 451 c 2
 204 451 l 2
 220 451 227 448 227 437 c 0
 227 434 227 431 226 428 c 2
 170 168 l 2
 166 148 163 133 163 124 c 0
 163 81 189 58 241 58 c 0
 318 58 394 114 410 190 c 2
 452 384 l 1
 394 384 l 2xb0
EndSplineSet
EndChar
StartChar: v
Encoding: 118 118 86
Width: 602
Flags: MW
HStem: -12 20 384 67<74.5 228 99 112 186 186 186 214 415 447 530 530 530 557>
VStem: 54 547<411 424.5>
LayerCount: 2
Fore
SplineSet
250 68 m 1
 447 384 l 1
 401 384 l 2
 382 384 371 393 371 412 c 0
 371 437 386 451 415 451 c 2
 572 451 l 2
 592 451 601 442 601 424 c 0
 601 398 586 384 557 384 c 2
 530 384 l 1
 312 49 l 2
 284 6 272 -12 241 -12 c 0
 199 -12 189 11 178 64 c 2
 112 384 l 1
 84 384 l 2
 65 384 54 393 54 412 c 0
 54 437 70 451 99 451 c 2
 228 451 l 2
 248 451 257 442 257 424 c 0
 257 398 243 384 214 384 c 2
 186 384 l 1
 250 68 l 1
EndSplineSet
EndChar
StartChar: w
Encoding: 119 119 87
Width: 602
Flags: MW
HStem: -12 20 384 67<43.5 210 67 71 145 145 145 195 474 514 589 589 589 602>
VStem: 23 613<412 424.5>
LayerCount: 2
Fore
SplineSet
71 384 m 1
 53 384 l 2
 34 384 23 393 23 412 c 0
 23 437 38 451 67 451 c 2
 210 451 l 2
 230 451 239 442 239 424 c 0
 239 398 224 384 195 384 c 2
 145 384 l 1
 158 73 l 1
 271 308 l 2
 279 325 295 335 314 335 c 0
 337 335 350 325 351 307 c 2
 366 77 l 1
 514 384 l 1
 459 384 l 2
 440 384 429 393 429 412 c 0
 429 437 445 451 474 451 c 2
 607 451 l 2
 627 451 636 443 636 424 c 0
 636 400 621 384 602 384 c 2
 589 384 l 1
 405 31 l 2
 387 -3 381 -12 352 -12 c 0
 323 -12 314 -1 313 35 c 2
 305 268 l 1
 189 26 l 2
 175 -3 165 -13 141 -13 c 0
 107 -13 103 -2 99 44 c 2
 71 384 l 1
EndSplineSet
EndChar
StartChar: x
Encoding: 120 120 88
Width: 602
Flags: MW
HStem: 0 67<29 78 53 78 163 181 362 409 482 485> 384 67<124.5 282 149 163 240 240 240 268 435 452 534 534 534 557>
VStem: 10 591<18 433>
LayerCount: 2
Fore
SplineSet
163 67 m 1
 196 67 l 2
 215 67 226 58 226 39 c 0
 226 14 210 0 181 0 c 2
 39 0 l 2
 19 0 10 9 10 27 c 0
 10 53 24 67 53 67 c 2
 78 67 l 1
 279 237 l 1
 163 384 l 1
 134 384 l 2
 115 384 104 393 104 412 c 0
 104 437 120 451 149 451 c 2
 282 451 l 2
 302 451 311 442 311 424 c 0
 311 398 297 384 268 384 c 2
 240 384 l 1
 324 274 l 1
 452 384 l 1
 420 384 l 2
 401 384 390 393 390 412 c 0
 390 437 406 451 435 451 c 2
 572 451 l 2
 592 451 601 442 601 424 c 0
 601 398 586 384 557 384 c 2
 534 384 l 1
 356 232 l 1
 482 67 l 1
 500 67 l 2
 519 67 530 58 530 39 c 0
 530 14 514 0 485 0 c 2
 348 0 l 2
 328 0 319 9 319 27 c 0
 319 53 333 67 362 67 c 2
 409 67 l 1
 310 194 l 1
 163 67 l 1
EndSplineSet
EndChar
StartChar: y
Encoding: 121 121 89
Width: 602
Flags: MW
HStem: -194 67<-20 105 4 105 191 216> 384 67<93.5 247 117 131 205 205 205 232 444 464 549 549 549 560>
VStem: -39 643<-176 433>
LayerCount: 2
Fore
SplineSet
279 107 m 1
 464 384 l 1
 429 384 l 2
 410 384 400 393 400 412 c 0
 400 437 415 451 444 451 c 2
 575 451 l 2
 595 451 604 442 604 424 c 0
 604 398 589 384 560 384 c 2
 549 384 l 1
 191 -127 l 1
 231 -127 l 2
 250 -127 260 -137 260 -156 c 0
 260 -181 245 -194 216 -194 c 2
 -10 -194 l 2
 -30 -194 -39 -185 -39 -167 c 0
 -39 -141 -25 -127 4 -127 c 2
 105 -127 l 1
 225 37 l 1
 131 384 l 1
 103 384 l 2
 84 384 73 393 73 412 c 0
 73 437 88 451 117 451 c 2
 247 451 l 2
 267 451 276 442 276 424 c 0
 276 398 261 384 232 384 c 2
 205 384 l 1
 279 107 l 1
EndSplineSet
EndChar
StartChar: z
Encoding: 122 122 90
Width: 602
Flags: MW
HStem: 0 68<105.5 399 165 399 165 412> 384 67<216 446 216 216>
VStem: 63 480<24 421.5>
LayerCount: 2
Fore
SplineSet
399 68 m 1
 413 123 l 2
 420 149 430 162 453 162 c 0
 473 162 482 153 482 136 c 0
 482 132 481 127 480 121 c 2
 465 50 l 2
 458 16 445 0 412 0 c 2
 127 0 l 2
 84 0 63 11 63 37 c 0
 63 56 74 72 94 89 c 2
 446 384 l 1
 216 384 l 1
 202 328 l 2
 195 302 185 290 162 290 c 0
 142 290 133 298 133 315 c 0
 133 319 134 324 135 330 c 2
 150 401 l 2
 157 435 170 451 203 451 c 2
 491 451 l 2
 521 451 543 433 543 410 c 0
 543 391 531 371 506 350 c 2
 165 68 l 1
 399 68 l 1
EndSplineSet
EndChar
StartChar: bar
Encoding: 124 124 92
Width: 602
Flags: MW
HStem: -261 20 768 20<289.5 312.5>
VStem: 260 82<-236 764>
LayerCount: 2
Fore
SplineSet
342 -236 m 2
 341 -249 324 -261 301 -261 c 0
 278 -261 261 -249 260 -236 c 2
 260 764 l 2
 261 777 278 788 301 788 c 0
 324 788 341 777 342 764 c 2
 342 -236 l 2
EndSplineSet
EndChar
StartChar: braceright
Encoding: 125 125 93
Width: 602
Flags: MW
HStem: -183 20 560 20<172 249>
VStem: 253 82<-11 13 13 34 34 45 -52.5 80.5 363 385>
LayerCount: 2
Fore
SplineSet
253 -11 m 2
 253 34 l 2
 253 127 267 177 342 199 c 1
 267 222 253 271 253 363 c 2
 253 410 l 2
 253 466 250 491 204 502 c 0
 177 509 143 502 143 542 c 0
 143 567 158 580 186 580 c 0
 312 580 335 514 335 385 c 2
 335 353 l 2
 335 263 361 249 425 239 c 0
 455 234 467 227 467 199 c 0
 467 177 457 166 437 161 c 0
 378 146 335 155 335 45 c 2
 335 13 l 2
 335 -118 312 -183 180 -183 c 0
 159 -183 143 -169 143 -145 c 0
 143 -108 172 -111 199 -106 c 0
 249 -97 253 -67 253 -11 c 2
EndSplineSet
EndChar
StartChar: asciitilde
Encoding: 126 126 94
Width: 602
Flags: MW
HStem: 250 115
VStem: 65 472<276.5 338.5>
LayerCount: 2
Fore
SplineSet
65 286 m 0
 65 319 129 365 201 365 c 0
 268 365 337 323 403 323 c 0
 459 323 490 359 513 359 c 0
 529 359 537 348 537 329 c 0
 537 296 472 250 401 250 c 0
 334 250 266 292 199 292 c 0
 143 292 111 256 89 256 c 0
 73 256 65 267 65 286 c 0
EndSplineSet
EndChar
StartChar: exclamdown
Encoding: 161 161 95
Width: 602
Flags: W
HStem: -15 20 373 20<306.5 330> 442 158<313.5 366 313.5 366.5>
VStem: 192 157 252 175<498 544>
LayerCount: 2
Fore
SplineSet
348 356 m 2xd0
 299 50 l 2
 293 13 286 -15 237 -15 c 0
 214 -15 192 3 192 17 c 0
 192 19 194 30 199 50 c 2
 278 354 l 2
 285 380 293 393 320 393 c 0
 340 393 349 385 349 367 c 0
 349 364 349 360 348 356 c 2xd0
427 521 m 0x28
 427 475 393 442 340 442 c 0
 287 442 252 475 252 521 c 0
 252 567 287 600 340 600 c 0
 392 600 427 567 427 521 c 0x28
EndSplineSet
EndChar
StartChar: cent
Encoding: 162 162 96
Width: 602
Flags: MW
HStem: 88 67<276 276> 435 65<306 306 306 354.5>
VStem: 84 76<235 310.5>
LayerCount: 2
Fore
SplineSet
276 88 m 1
 259 21 l 2
 253 -1 237 -16 217 -16 c 0
 198 -16 185 -6 185 8 c 0
 185 12 186 16 187 21 c 2
 208 91 l 1
 123 124 84 172 84 255 c 0
 84 366 166 466 306 500 c 1
 326 592 l 2
 330 612 349 629 369 629 c 0
 387 629 400 619 400 606 c 0
 400 601 399 597 398 592 c 2
 375 498 l 1
 401 493 426 484 452 471 c 1
 464 477 475 481 484 481 c 0
 502 481 511 470 511 455 c 0
 511 453 511 450 510 447 c 2
 491 364 l 2
 486 342 473 330 456 330 c 0
 421 330 422 368 413 391 c 0
 402 420 375 435 334 435 c 0
 245 435 160 355 160 270 c 0
 160 200 203 155 277 155 c 0
 357 155 408 195 429 195 c 0
 445 195 458 185 458 172 c 0
 458 132 399 108 276 88 c 1
EndSplineSet
EndChar
StartChar: sterling
Encoding: 163 163 97
Width: 602
Flags: W
HStem: -9 72<316 360> 14 68<141.5 217> 276 68<132 187 150 187 150 187 266 421> 580 55<346 409.5>
VStem: 185 79<389.5 459 389.5 465>
LayerCount: 2
Fore
SplineSet
123 293 m 2x78
 130 325 l 2
 133 337 138 344 150 344 c 2
 187 344 l 1
 186 358 185 371 185 384 c 0
 185 546 265 635 388 635 c 0
 456 635 518 612 518 585 c 0
 518 583 518 582 518 581 c 2
 509 535 l 2
 504 512 489 498 471 498 c 0
 456 498 449 504 449 519 c 2
 449 540 l 2
 449 568 430 580 389 580 c 0
 303 580 264 520 264 398 c 0
 264 381 265 363 266 344 c 1
 433 344 l 2
 442 344 447 337 447 328 c 0
 447 327 447 325 447 324 c 2
 441 292 l 2
 438 279 435 276 421 276 c 2
 266 276 l 1
 262 205 242 143 203 82 c 1
 206 82 210 82 217 82 c 0x78
 253 82 295 63 337 63 c 0
 388 63 412 92 422 92 c 0
 428 92 435 87 437 81 c 2
 444 57 l 2
 444 56 444 56 444 55 c 0
 444 39 401 -9 319 -9 c 0x80
 262 -9 211 14 169 14 c 0
 114 14 82 -17 62 -17 c 0
 53 -17 43 -4 43 13 c 0
 43 45 96 40 126 69 c 0
 155 97 179 167 187 276 c 1
 137 276 l 2
 127 276 122 279 122 287 c 0
 122 289 122 291 123 293 c 2x78
EndSplineSet
EndChar
StartChar: yen
Encoding: 165 165 99
Width: 602
Flags: MW
HStem: 0 67<97.5 221 122 221 287 368> 243 49<63.5 239 87 239 87 256 359 530> 387 49<82.5 194 106 194 106 210 466 549> 549 67<120.5 290 150 160 228 228 228 275 459 477 548 548 548 572>
VStem: 43 565<259.5 597>
LayerCount: 2
Fore
SplineSet
107 0 m 2
 88 0 78 10 78 28 c 0
 78 52 94 67 122 67 c 2
 221 67 l 1
 256 243 l 1
 73 243 l 2
 54 243 43 253 43 266 c 0
 43 280 60 292 87 292 c 2
 239 292 l 1
 210 387 l 1
 92 387 l 2
 73 387 62 395 62 409 c 0
 62 424 79 436 106 436 c 2
 194 436 l 1
 160 549 l 1
 128 549 l 2
 113 549 105 558 105 575 c 0
 105 605 119 616 150 616 c 2
 290 616 l 2
 309 616 320 606 320 588 c 0
 320 564 303 549 275 549 c 2
 228 549 l 1
 302 296 l 1
 477 549 l 1
 444 549 l 2
 425 549 414 559 414 577 c 0
 414 601 431 616 459 616 c 2
 578 616 l 2
 597 616 608 606 608 588 c 0
 608 565 589 549 572 549 c 2
 548 549 l 1
 466 436 l 1
 562 436 l 2
 581 436 592 427 592 413 c 0
 592 397 577 387 549 387 c 2
 429 387 l 1
 359 292 l 1
 544 292 l 2
 563 292 573 284 573 270 c 0
 573 253 558 243 530 243 c 2
 322 243 l 1
 287 67 l 1
 383 67 l 2
 402 67 413 57 413 39 c 0
 413 15 396 0 368 0 c 2
 107 0 l 2
EndSplineSet
EndChar
StartChar: section
Encoding: 167 167 101
Width: 602
Flags: MW
HStem: -104 65<67 240 127 240 240 256> 513 67<337 350 350 462>
VStem: 92 70<316 338.5> 188 76<433 475.5 441.5 475.5 441.5 480> 325 79 428 68<139 158>
LayerCount: 2
Fore
SplineSet
389 96 m 1
 415 110 428 126 428 146 c 0
 428 170 413 186 387 208 c 2
 263 310 l 2
 250 320 231 343 206 377 c 1
 177 369 162 351 162 328 c 0
 162 304 177 288 203 266 c 2
 327 164 l 2
 334 158 355 136 389 96 c 1
52 -81 m 2
 72 22 l 2
 76 44 92 59 111 59 c 0
 129 59 140 48 140 31 c 0
 140 29 140 26 139 23 c 2
 127 -39 l 1
 240 -39 l 2
 297 -39 325 -20 325 17 c 0
 325 48 307 75 272 104 c 2
 143 208 l 2
 109 235 92 270 92 309 c 0
 92 368 122 404 188 433 c 0
 188 434 188 435 188 437 c 0
 188 523 257 580 337 580 c 2
 517 580 l 2
 532 580 539 575 539 564 c 0
 539 562 538 560 538 557 c 2
 518 452 l 2
 514 431 497 415 478 415 c 0
 460 415 449 426 449 443 c 0
 449 445 449 448 450 451 c 2
 462 513 l 1
 350 513 l 2
 293 513 264 494 264 457 c 0
 264 426 283 399 318 370 c 2
 444 268 l 2
 478 240 496 202 496 165 c 0
 496 113 466 74 404 39 c 1
 398 -50 337 -104 256 -104 c 2
 76 -104 l 2
 58 -104 51 -103 51 -92 c 0
 51 -89 51 -85 52 -81 c 2
EndSplineSet
EndChar
StartChar: dieresis
Encoding: 200 168 130
Width: 602
Flags: MW
HStem: 522 118<219 251 219 252 468 500>
VStem: 176 118<565.5 597.5> 425 117<565.5 597.5>
LayerCount: 2
Fore
SplineSet
176 582 m 0
 176 613 203 640 235 640 c 0
 267 640 294 614 294 582 c 0
 294 547 269 522 235 522 c 0
 202 522 176 549 176 582 c 0
425 582 m 0
 425 613 452 640 484 640 c 0
 516 640 542 614 542 582 c 0
 542 547 518 522 484 522 c 0
 451 522 425 549 425 582 c 0
EndSplineSet
EndChar
StartChar: ordfeminine
Encoding: 227 170 138
Width: 602
Flags: W
HStem: 219 58<216 250.5> 227 53<386.5 460 422 449> 412 48<268.5 326> 544 53<312 362>
VStem: 109 63<313 352 313 361>
LayerCount: 2
Fore
SplineSet
389 400 m 1xa8
 363 408 338 412 314 412 c 0
 223 412 172 375 172 329 c 0
 172 297 195 277 237 277 c 0
 306 277 374 325 384 379 c 2
 389 400 l 1xa8
400 227 m 2x78
 373 227 365 229 365 253 c 0
 365 262 367 275 371 292 c 1
 328 244 277 219 224 219 c 0xa8
 153 219 109 261 109 323 c 0
 109 399 188 460 311 460 c 0
 341 460 369 455 399 446 c 1
 404 464 406 477 406 487 c 0
 406 524 383 544 341 544 c 0
 283 544 241 511 216 511 c 0
 201 511 190 521 190 533 c 0
 190 564 261 597 346 597 c 0
 427 597 467 560 467 502 c 0
 467 493 466 483 464 472 c 2
 422 280 l 1
 460 280 l 2
 476 280 483 273 483 258 c 0
 483 237 472 227 449 227 c 2
 400 227 l 2x78
EndSplineSet
EndChar
StartChar: guillemotleft
Encoding: 171 171 105
Width: 602
Flags: MW
HStem: 47 361<221 278 265 396>
VStem: 142 156<223 389> 303 157<223 389>
LayerCount: 2
Fore
SplineSet
375 230 m 1
 415 90 l 2
 416 85 417 80 417 76 c 0
 417 59 404 47 388 47 c 0
 376 47 365 56 361 68 c 2
 305 215 l 2
 304 219 303 222 303 224 c 0
 303 239 306 248 314 259 c 2
 405 393 l 2
 411 402 421 408 431 408 c 0
 447 408 460 396 460 382 c 0
 460 374 458 368 455 362 c 2
 375 230 l 1
214 230 m 1
 254 90 l 2
 255 85 256 80 256 76 c 0
 256 59 243 47 227 47 c 0
 215 47 204 56 200 68 c 2
 144 215 l 2
 143 219 142 222 142 224 c 0
 142 239 145 248 153 259 c 2
 244 393 l 2
 250 402 260 408 270 408 c 0
 286 408 298 396 298 382 c 0
 298 374 296 368 293 362 c 2
 214 230 l 1
EndSplineSet
EndChar
StartChar: macron
Encoding: 197 175 127
Width: 602
Flags: MW
HStem: 552 58<200.5 514 211 508>
VStem: 189 341<566 595 567 595>
LayerCount: 2
Fore
SplineSet
514 610 m 2
 522 610 530 602 530 595 c 2
 530 595 530 594 530 594 c 1
 524 567 l 2
 522 557 518 552 508 552 c 2
 205 552 l 2
 196 552 189 560 189 566 c 2
 189 566 189 567 189 567 c 1
 195 594 l 2
 197 605 202 610 211 610 c 2
 514 610 l 2
EndSplineSet
EndChar
StartChar: plusminus
Encoding: 329 177 222
Width: 602
Flags: MW
HStem: 45 71<132.5 457 144 457> 178 20 362 72<132.5 264 144 264 337 457> 599 20<290 312>
VStem: 105 159<70.5 362 216 408> 337 159<70.5 216 70.5 362>
LayerCount: 2
Fore
SplineSet
144 45 m 2
 121 45 105 60 105 81 c 0
 105 101 123 116 144 116 c 2
 457 116 l 2
 480 116 496 103 496 81 c 0
 496 60 480 45 457 45 c 2
 144 45 l 2
457 434 m 2
 480 434 496 420 496 398 c 0
 496 377 480 362 457 362 c 2
 337 362 l 1
 337 216 l 2
 337 193 323 178 301 178 c 0
 281 178 264 195 264 216 c 2
 264 362 l 1
 144 362 l 2
 121 362 105 377 105 398 c 0
 105 418 123 434 144 434 c 2
 264 434 l 1
 264 580 l 2
 264 603 279 619 301 619 c 0
 323 619 337 603 337 580 c 2
 337 434 l 1
 457 434 l 2
EndSplineSet
EndChar
StartChar: twosuperior
Encoding: 333 178 226
Width: 602
Flags: MW
HStem: 241 56<171.5 379 219 379 219 399> 572 60<269.5 311.5>
VStem: 354 77<487 528.5>
LayerCount: 2
Fore
SplineSet
219 297 m 1
 379 297 l 1
 382 314 l 2
 385 335 400 349 417 349 c 0
 436 349 451 332 451 310 c 0
 451 307 451 303 450 300 c 2
 444 267 l 2
 441 247 425 241 399 241 c 2
 184 241 l 2
 159 241 146 259 146 284 c 0
 146 322 188 345 254 391 c 0
 317 435 354 464 354 510 c 0
 354 547 330 572 293 572 c 0
 246 572 214 537 190 537 c 0
 172 537 159 549 159 562 c 0
 159 593 225 632 300 632 c 0
 379 632 431 580 431 512 c 0
 431 427 355 383 219 297 c 1
EndSplineSet
EndChar
StartChar: acute
Encoding: 194 180 124
Width: 602
Flags: MW
HStem: 516 144
VStem: 242 272<542 604.5>
LayerCount: 2
Fore
SplineSet
252 516 m 1
 242 542 l 1
 472 658 l 2
 474 659 477 660 479 660 c 0
 487 660 496 654 500 643 c 2
 512 612 l 2
 513 609 514 606 514 603 c 0
 514 594 508 586 500 584 c 2
 252 516 l 1
EndSplineSet
EndChar
StartChar: mu
Encoding: 324 181 217
Width: 602
Flags: MW
HStem: -200 20 -11 70 384 67<96 205 120 145>
VStem: 33 500
LayerCount: 2
Fore
SplineSet
457 67 m 1
 488 67 l 2
 507 67 517 57 517 39 c 0
 517 14 502 0 473 0 c 2
 396 0 l 2
 380 0 372 4 372 15 c 0
 372 17 373 20 374 24 c 2
 384 59 l 1
 333 12 280 -11 219 -11 c 0
 184 -11 158 -2 137 19 c 1
 108 -144 l 2
 101 -184 93 -200 69 -200 c 0
 43 -200 33 -192 33 -172 c 0
 33 -162 35 -148 39 -130 c 2
 145 384 l 1
 106 384 l 2
 86 384 76 394 76 412 c 0
 76 437 91 451 120 451 c 2
 205 451 l 2
 221 451 229 447 229 436 c 0
 229 433 229 431 228 428 c 2
 171 168 l 2
 167 148 164 133 164 123 c 0
 164 80 190 58 242 58 c 0
 322 58 396 116 411 190 c 2
 457 417 l 2
 462 443 468 451 500 451 c 0
 521 451 533 442 533 425 c 0
 533 422 533 419 532 416 c 2
 457 67 l 1
EndSplineSet
EndChar
StartChar: paragraph
Encoding: 182 182 114
Width: 602
Flags: W
HStem: -77 66<121.5 242 153 242 153 256 417 451> 254 362<224 584> 550 66<419 475 418 584 533 569 533 533>
VStem: 99 515
LayerCount: 2
Fore
SplineSet
256 -77 m 2xb0
 134 -77 l 2
 109 -77 99 -73 99 -50 c 0
 99 -22 116 -11 153 -11 c 2
 242 -11 l 1
 298 255 l 1
 291 255 284 254 277 254 c 0xd0
 171 254 109 311 109 403 c 0
 109 542 212 616 419 616 c 2
 584 616 l 2
 606 616 614 611 614 592 c 0
 614 563 599 550 569 550 c 2
 533 550 l 1
 417 -11 l 1
 470 -11 l 2
 490 -11 500 -19 500 -36 c 0
 500 -67 483 -77 451 -77 c 2
 372 -77 l 2
 345 -77 332 -76 332 -50 c 0
 332 -34 341 -21 359 -11 c 1
 475 550 l 1
 418 550 l 1
 300 -11 l 1
 309 -17 314 -23 314 -30 c 0
 314 -73 292 -77 256 -77 c 2xb0
EndSplineSet
EndChar
StartChar: periodcentered
Encoding: 180 183 113
Width: 602
Flags: MW
HStem: 229 174<272 330>
VStem: 205 192<291 341>
LayerCount: 2
Fore
SplineSet
205 316 m 0
 205 366 243 403 301 403 c 0
 359 403 397 367 397 316 c 0
 397 265 359 229 301 229 c 0
 243 229 205 266 205 316 c 0
EndSplineSet
EndChar
StartChar: cedilla
Encoding: 203 184 132
Width: 602
Flags: MW
HStem: -223 47<252.5 291 248 324> -93 41<267 338.5> -20 20<261 295 295 295>
VStem: 323 77<-147 -120.5>
LayerCount: 2
Fore
SplineSet
261 0 m 1
 295 0 l 1
 278 -55 l 1
 294 -53 305 -52 313 -52 c 0
 364 -52 400 -85 400 -135 c 0
 400 -189 360 -223 288 -223 c 0
 217 -223 146 -196 146 -170 c 0
 146 -156 153 -149 168 -149 c 0
 187 -149 220 -176 276 -176 c 0
 306 -176 323 -161 323 -133 c 0
 323 -108 305 -93 272 -93 c 0
 262 -93 247 -96 228 -100 c 1
 261 0 l 1
EndSplineSet
EndChar
StartChar: ordmasculine
Encoding: 235 186 142
Width: 602
Flags: MW
HStem: 215 51<243 324.5 243 339> 543 53<277 357>
VStem: 99 65<343.5 423.5 343.5 437> 438 65<387 467>
LayerCount: 2
Fore
SplineSet
99 376 m 0
 99 498 199 596 327 596 c 0
 435 596 503 532 503 435 c 0
 503 313 404 215 274 215 c 0
 168 215 99 279 99 376 c 0
322 543 m 0
 232 543 164 469 164 378 c 0
 164 309 207 266 279 266 c 0
 370 266 438 341 438 433 c 0
 438 501 392 543 322 543 c 0
EndSplineSet
EndChar
StartChar: guillemotright
Encoding: 187 187 119
Width: 602
Flags: MW
HStem: 49 361<150 207 193 325>
VStem: 130 157<69 234> 291 157<69 234>
LayerCount: 2
Fore
SplineSet
215 227 m 1
 175 368 l 2
 174 373 173 377 173 381 c 0
 173 398 185 410 201 410 c 0
 213 410 225 402 229 390 c 2
 284 243 l 2
 285 239 287 235 287 233 c 0
 287 218 283 210 275 199 c 2
 185 64 l 2
 179 55 168 49 158 49 c 0
 142 49 130 62 130 76 c 0
 130 84 132 90 135 96 c 2
 215 227 l 1
376 227 m 1
 336 368 l 2
 335 373 334 377 334 381 c 0
 334 398 347 410 363 410 c 0
 375 410 386 402 390 390 c 2
 446 243 l 2
 447 239 448 235 448 233 c 0
 448 218 445 210 437 199 c 2
 346 64 l 2
 340 55 330 49 320 49 c 0
 304 49 291 62 291 76 c 0
 291 84 294 90 297 96 c 2
 376 227 l 1
EndSplineSet
EndChar
StartChar: onequarter
Encoding: 327 188 220
Width: 602
Flags: W
HStem: -93 20 -17 56<245.5 410 284 405 466 503> 243 20<401 408.5> 328 56<89 157 124 157 223 251 251 270.5> 616 59<116 116 116 117.5 116 120>
VStem: 157 66<384 618 618 618> 410 56<39 203 203 203>
LayerCount: 2
Fore
SplineSet
496 419 m 2
 502 422 508 423 513 423 c 0
 528 423 539 411 539 397 c 0
 539 387 532 376 521 370 c 2
 102 158 l 2
 97 155 91 154 86 154 c 0
 71 154 60 167 60 181 c 0
 60 191 67 201 78 207 c 2
 496 419 l 2
466 -68 m 2xfe
 466 -89 454 -93 432 -93 c 0
 413 -93 405 -87 405 -68 c 2
 405 -17 l 1
 257 -17 l 2
 234 -17 226 -6 226 19 c 0
 226 37 226 53 244 75 c 2
 382 246 l 2
 391 257 396 263 406 263 c 0
 411 263 417 262 422 261 c 2
 450 253 l 2
 463 250 466 239 466 222 c 2
 466 39 l 1
 503 39 l 2
 524 39 527 33 527 12 c 0
 527 -9 525 -17 503 -17 c 2
 466 -17 l 1
 466 -68 l 2xfe
410 39 m 1
 410 203 l 1
 284 39 l 1
 410 39 l 1
100 328 m 2
 78 328 65 339 65 356 c 0
 65 380 84 384 124 384 c 2
 157 384 l 1
 157 618 l 1
 120 616 l 2
 119 616 118 616 117 616 c 0
 92 616 77 629 77 644 c 0
 77 663 90 673 116 675 c 2
 186 680 l 2
 188 680 190 680 192 680 c 0
 214 680 223 669 223 644 c 2
 223 384 l 1
 251 384 l 2
 290 384 310 382 310 356 c 0
 310 339 297 328 275 328 c 2
 100 328 l 2
EndSplineSet
EndChar
StartChar: questiondown
Encoding: 191 191 122
Width: 602
Flags: MW
HStem: -17 68<248 303.5 248 308> 437 158<358.5 411 358.5 411.5>
VStem: 113 78<102.5 148 102.5 164> 297 175<493 539>
LayerCount: 2
Fore
SplineSet
326 350 m 2
 331 374 345 386 368 386 c 0
 390 386 401 378 401 361 c 0
 401 358 401 355 400 352 c 2
 394 319 l 2
 389 293 370 272 348 262 c 2
 278 232 l 2
 220 207 191 171 191 125 c 0
 191 80 221 51 275 51 c 0
 332 51 368 68 374 85 c 2
 379 101 l 2
 386 121 398 131 415 131 c 0
 433 131 444 120 444 103 c 0
 444 100 444 97 443 93 c 2
 433 46 l 2
 426 12 357 -17 259 -17 c 0
 167 -17 113 34 113 118 c 0
 113 210 180 266 318 313 c 1
 326 350 l 2
472 516 m 0
 472 470 438 437 385 437 c 0
 332 437 297 470 297 516 c 0
 297 562 332 595 385 595 c 0
 437 595 472 562 472 516 c 0
EndSplineSet
EndChar
StartChar: Aring
Encoding: 260 197 153
Width: 602
Flags: W
HStem: 0 67<-31.5 16 -7 16 93 142 359 424 500 510> 181 65<191 395 191 407 155 395> 512 67<176 373 201 268> 611 58<306.5 343 306.5 359.5> 800 58<306.5 343>
VStem: -51 606<27.5 40.5> 202 57<715.5 752 715.5 769> 391 58<715.5 752>
LayerCount: 2
Fore
SplineSet
259 734 m 0x1b
 259 697 288 669 325 669 c 0
 361 669 391 697 391 734 c 0
 391 770 361 800 325 800 c 0
 288 800 259 770 259 734 c 0x1b
202 735 m 0
 202 803 256 858 325 858 c 0
 394 858 449 804 449 735 c 0
 449 666 394 611 325 611 c 0
 256 611 202 666 202 735 c 0
191 246 m 1xe4
 395 246 l 1
 346 531 l 1
 191 246 l 1xe4
93 67 m 1
 156 67 l 2
 176 67 186 58 186 40 c 0
 186 15 171 0 142 0 c 2
 -22 0 l 2
 -41 0 -51 10 -51 28 c 0
 -51 53 -36 67 -7 67 c 2
 16 67 l 1
 268 512 l 1
 186 512 l 2
 166 512 156 521 156 539 c 0
 156 565 172 579 201 579 c 2
 373 579 l 2
 404 579 413 569 419 532 c 2
 500 67 l 1
 525 67 l 2
 545 67 555 58 555 40 c 0
 555 15 539 0 510 0 c 2
 344 0 l 2
 325 0 315 10 315 28 c 0
 315 53 330 67 359 67 c 2
 424 67 l 1
 407 181 l 1
 155 181 l 1
 93 67 l 1
EndSplineSet
EndChar
StartChar: AE
Encoding: 225 198 137
Width: 602
Flags: MW
HStem: 0 67<-72 -22 -47 -22 54 69 191 214 282 438> 190 51<142 239 116 249> 285 59<340 397 326 407> 517 62<169.5 565 191 220 280 306 280 280 374 374 374 532>
VStem: -91 699<19 556>
LayerCount: 2
Fore
SplineSet
142 241 m 1
 249 241 l 1
 306 517 l 1
 280 517 l 1
 142 241 l 1
-62 0 m 2
 -82 0 -91 10 -91 28 c 0
 -91 54 -76 67 -47 67 c 2
 -22 67 l 1
 220 517 l 1
 179 517 l 2
 160 517 149 526 149 544 c 0
 149 567 163 579 191 579 c 2
 565 579 l 2
 592 579 608 566 608 546 c 0
 608 543 608 537 606 529 c 2
 581 425 l 2
 572 388 565 379 541 379 c 0
 521 379 511 389 511 406 c 0
 511 410 511 419 514 432 c 2
 532 517 l 1
 374 517 l 1
 340 344 l 1
 407 344 l 1
 416 377 l 2
 422 402 426 417 450 417 c 0
 467 417 476 409 476 394 c 0
 476 388 474 377 471 361 c 2
 450 254 l 2
 444 224 442 212 416 212 c 0
 399 212 389 220 389 231 c 0
 389 239 390 244 391 248 c 2
 397 285 l 1
 326 285 l 1
 282 67 l 1
 438 67 l 1
 459 158 l 2
 467 190 477 204 498 204 c 0
 519 204 528 195 528 175 c 0
 528 168 527 160 525 150 c 2
 502 42 l 2
 496 13 489 0 446 0 c 2
 176 0 l 2
 156 0 147 10 147 28 c 0
 147 54 162 67 191 67 c 2
 214 67 l 1
 239 190 l 1
 116 190 l 1
 54 67 l 1
 84 67 l 2
 105 67 114 60 114 41 c 0
 114 16 97 0 69 0 c 2
 -62 0 l 2
EndSplineSet
EndChar
StartChar: multiply
Encoding: 325 215 218
Width: 602
Flags: MW
HStem: 125 381<451.5 462 447.5 467>
VStem: 112 380<153 165.5 151 168.5>
LayerCount: 2
Fore
SplineSet
300 368 m 1
 425 493 l 2
 433 501 443 506 452 506 c 0
 472 506 488 490 488 470 c 0
 488 461 483 451 475 443 c 2
 350 318 l 1
 479 188 l 2
 487 180 492 170 492 161 c 0
 492 141 477 125 457 125 c 0
 446 125 436 129 428 137 c 2
 299 266 l 1
 174 142 l 2
 166 134 155 129 146 129 c 0
 126 129 112 143 112 163 c 0
 112 174 116 184 124 192 c 2
 248 317 l 1
 119 447 l 2
 111 455 106 465 106 476 c 0
 106 494 123 511 142 511 c 0
 151 511 162 506 170 498 c 2
 300 368 l 1
EndSplineSet
EndChar
StartChar: Oslash
Encoding: 233 216 140
Width: 602
Flags: MW
HStem: -15 69<235.5 291.5 235.5 301> 529 66<299.5 367>
VStem: 22 87<204 260> 494 86<323 370>
LayerCount: 2
Fore
SplineSet
482 439 m 1
 144 103 l 1
 173 70 212 54 259 54 c 0
 324 54 381 87 427 151 c 0
 471 212 494 290 494 356 c 0
 494 384 491 411 482 439 c 1
507 543 m 1
 558 593 l 2
 568 603 577 611 587 611 c 0
 601 611 613 599 613 585 c 0
 613 576 607 563 598 554 c 2
 544 501 l 1
 568 464 580 419 580 364 c 0
 580 276 550 189 495 113 c 0
 434 30 349 -15 253 -15 c 0
 184 -15 126 6 86 44 c 1
 30 -10 l 2
 20 -20 12 -28 2 -28 c 0
 -12 -28 -25 -16 -25 -2 c 0
 -25 7 -19 20 -10 29 c 2
 51 90 l 1
 29 129 22 169 22 216 c 0
 22 304 51 392 106 467 c 0
 167 550 252 595 347 595 c 0
 413 595 468 577 507 543 c 1
116 155 m 1
 451 487 l 1
 423 516 389 529 345 529 c 0
 220 529 109 395 109 213 c 0
 109 195 110 176 116 155 c 1
EndSplineSet
EndChar
StartChar: Thorn
Encoding: 318 222 211
Width: 602
Flags: MW
HStem: 0 67<25 109 50 109 185 276> 127 56<210 256 256 264 198 256> 392 61<254 312 267 312 312 331> 512 67<130 342 155 204 280 327 280 280>
VStem: 432 85<270 343.5>
LayerCount: 2
Fore
SplineSet
342 579 m 2
 362 579 372 569 372 551 c 0
 372 526 356 512 327 512 c 2
 280 512 l 1
 267 453 l 1
 312 453 l 2
 443 453 517 433 517 319 c 0
 517 197 434 127 264 127 c 2
 198 127 l 1
 185 67 l 1
 291 67 l 2
 311 67 321 57 321 39 c 0
 321 14 305 0 276 0 c 2
 35 0 l 2
 15 0 5 9 5 27 c 0
 5 53 21 67 50 67 c 2
 109 67 l 1
 204 512 l 1
 140 512 l 2
 120 512 111 521 111 539 c 0
 111 564 126 579 155 579 c 2
 342 579 l 2
254 392 m 1
 210 183 l 1
 256 183 l 2
 373 183 432 224 432 316 c 0
 432 371 398 392 331 392 c 2
 254 392 l 1
EndSplineSet
EndChar
StartChar: germandbls
Encoding: 251 223 148
Width: 602
Flags: W
HStem: -12 65<302 357.5 302 376> 0 67<0 85 24 85 24 108> 331 68 575 63<329.5 397>
VStem: 458 81<172 250.5> 464 80<475.5 520.5>
LayerCount: 2
Fore
SplineSet
170 467 m 2x74
 194 580 240 638 366 638 c 0
 474 638 544 584 544 508 c 0x74
 544 443 495 386 416 375 c 1
 498 363 539 311 539 220 c 0
 539 83 445 -12 307 -12 c 0
 248 -12 223 -4 223 22 c 0
 223 42 237 55 262 55 c 0
 273 55 290 53 314 53 c 0
 401 53 458 124 458 220 c 0x88
 458 281 428 321 380 331 c 0
 340 339 302 325 302 363 c 0
 302 404 344 389 384 399 c 0
 433 411 464 449 464 496 c 0
 464 545 429 575 365 575 c 0
 294 575 260 542 245 472 c 2
 152 33 l 2
 147 9 134 0 108 0 c 2
 10 0 l 2
 -10 0 -19 9 -19 27 c 0
 -19 53 -5 67 24 67 c 2
 85 67 l 1
 170 467 l 2x74
EndSplineSet
EndChar
StartChar: aring
Encoding: 288 229 181
Width: 602
Flags: W
HStem: -9 71<188.5 232> 0 67<403.5 494 447 481> 233 59<254 326 231 327> 397 66<308.5 371.5> 495 58<347.5 384 347.5 400.5> 685 57<347.5 384>
VStem: 54 79<108 156.5 108 168> 243 57<600.5 637 600.5 653> 432 57<600.5 637.5>
LayerCount: 2
Fore
SplineSet
405 217 m 1xa2
 373 227 343 233 311 233 c 0
 197 233 133 185 133 128 c 0
 133 88 162 62 215 62 c 0
 300 62 387 122 400 190 c 2
 405 217 l 1xa2
420 0 m 2x7f80
 387 0 375 3 375 33 c 0
 375 44 378 59 383 81 c 1
 329 21 265 -9 199 -9 c 0xa2
 111 -9 54 44 54 121 c 0
 54 215 154 292 308 292 c 0
 344 292 380 286 418 275 c 1
 424 299 426 316 426 326 c 0
 426 373 398 397 345 397 c 0
 272 397 220 356 189 356 c 0
 170 356 157 368 157 384 c 0
 157 423 244 463 354 463 c 0
 453 463 503 417 503 346 c 0
 503 334 502 321 499 308 c 2
 447 67 l 1
 494 67 l 2
 514 67 523 57 523 39 c 0
 523 12 510 0 481 0 c 2
 420 0 l 2x7f80
300 619 m 0
 300 582 329 553 366 553 c 0
 402 553 432 582 432 619 c 0
 432 656 402 685 366 685 c 0
 329 685 300 655 300 619 c 0
243 619 m 0
 243 687 297 742 366 742 c 0
 435 742 489 688 489 619 c 0
 489 550 435 495 366 495 c 0
 297 495 243 550 243 619 c 0
EndSplineSet
EndChar
StartChar: ae
Encoding: 241 230 143
Width: 602
Flags: W
HStem: -11 60<105.5 129.5> -11 64<373.5 434.5> 203 62<201 234 234 254 343 513 201 330> 401 62<195.5 244 444 476.5>
VStem: -12 74<94 144.5 94 147.5> 523 74<315.5 348.5>
LayerCount: 2
Fore
SplineSet
338 400 m 1x7c
 380 443 418 463 470 463 c 0
 552 463 597 415 597 326 c 0
 597 267 580 223 574 215 c 0
 564 203 544 203 513 203 c 2
 330 203 l 1
 325 185 l 2
 320 166 317 149 317 135 c 0
 317 83 347 53 400 53 c 0
 470 53 501 120 534 120 c 0
 552 120 561 110 561 91 c 0
 561 56 480 -11 389 -11 c 0
 328 -11 293 10 263 66 c 1
 207 14 155 -11 104 -11 c 0
 35 -11 -12 36 -12 102 c 0
 -12 193 68 265 201 265 c 2
 270 265 l 1
 276 294 l 2
 280 314 283 332 283 349 c 0
 283 385 264 401 224 401 c 0
 166 401 138 354 111 354 c 0
 94 354 85 363 85 379 c 0
 85 414 157 463 234 463 c 0
 287 463 318 445 338 400 c 1x7c
254 203 m 1xbc
 234 203 l 2
 119 203 62 176 62 113 c 0
 62 75 86 49 125 49 c 0
 148 49 175 61 203 83 c 0
 239 112 240 134 246 165 c 2
 254 203 l 1xbc
343 265 m 1
 514 265 l 1
 520 288 523 307 523 324 c 0
 523 373 496 401 457 401 c 0
 410 401 361 354 343 265 c 1
EndSplineSet
EndChar
StartChar: eth
Encoding: 323 240 216
Width: 602
Flags: MW
HStem: -12 64<228.5 332 228.5 350.5> 391 65<269 331.5 248.5 371> 615 20<235 260.5>
VStem: 47 81<149.5 243.5 149.5 261.5> 472 81<200.5 293.5>
LayerCount: 2
Fore
SplineSet
326 391 m 0
 212 391 128 295 128 192 c 0
 128 107 183 52 274 52 c 0
 390 52 472 149 472 252 c 0
 472 335 416 391 326 391 c 0
381 446 m 1
 357 481 335 508 318 524 c 1
 219 481 l 2
 214 479 209 477 205 477 c 0
 195 477 182 489 182 499 c 0
 182 512 189 519 203 525 c 2
 283 559 l 1
 244 596 213 609 213 624 c 0
 213 630 226 635 244 635 c 0
 277 635 303 617 345 586 c 1
 442 627 l 2
 448 629 452 631 456 631 c 0
 466 631 479 621 479 608 c 0
 479 597 473 589 459 583 c 2
 386 553 l 1
 497 452 553 350 553 258 c 0
 553 111 432 -12 269 -12 c 0
 133 -12 47 71 47 189 c 0
 47 334 176 456 321 456 c 0
 342 456 361 452 381 446 c 1
EndSplineSet
EndChar
StartChar: divide
Encoding: 322 247 215
Width: 602
Flags: MW
HStem: 100 109<286.5 316 286.5 316.5> 272 72<72 519 82 519> 406 110<286.5 315.5 286.5 316>
VStem: 51 196<139 319.5> 355 195<139.5 319.5 296.5 476>
LayerCount: 2
Fore
SplineSet
301 516 m 0
 330 516 355 491 355 461 c 0
 355 432 331 406 301 406 c 0
 271 406 247 431 247 461 c 0
 247 492 272 516 301 516 c 0
82 344 m 2
 519 344 l 2
 539 344 550 331 550 308 c 0
 550 285 539 272 519 272 c 2
 82 272 l 2
 62 272 51 284 51 308 c 0
 51 331 62 344 82 344 c 2
301 209 m 0
 331 209 355 184 355 154 c 0
 355 125 332 100 301 100 c 0
 271 100 247 124 247 154 c 0
 247 185 272 209 301 209 c 0
EndSplineSet
EndChar
StartChar: oslash
Encoding: 249 248 146
Width: 602
Flags: MW
HStem: -12 64<252 330.5 252 351> 398 65<270.5 349.5>
VStem: 48 81<178.5 247.5 178.5 263.5> 473 81<203.5 275.5>
LayerCount: 2
Fore
SplineSet
455 335 m 1
 171 86 l 1
 194 64 230 52 274 52 c 0
 387 52 473 145 473 262 c 0
 473 289 468 312 455 335 c 1
143 123 m 1
 423 369 l 1
 407 386 372 398 327 398 c 0
 214 398 129 305 129 190 c 0
 129 167 134 145 143 123 c 1
114 38 m 1
 60 -10 l 2
 50 -19 41 -24 34 -24 c 0
 21 -24 11 -14 11 -4 c 0
 11 3 16 13 24 20 c 2
 83 72 l 1
 58 108 48 143 48 187 c 0
 48 340 169 463 335 463 c 0
 390 463 435 451 481 419 c 1
 529 462 l 2
 538 470 545 476 554 476 c 0
 567 476 578 466 578 456 c 0
 578 450 573 438 565 431 c 2
 513 387 l 1
 542 349 554 312 554 265 c 0
 554 111 432 -12 270 -12 c 0
 205 -12 149 6 114 38 c 1
EndSplineSet
EndChar
StartChar: thorn
Encoding: 330 254 223
Width: 602
Flags: MW
HStem: -194 67<-36 21 -11 21 93 186> -1 66<258 349.5 257.5 369> 397 65<344.5 395> 572 67<124 230 148 169>
VStem: 482 82<212.5 311>
LayerCount: 2
Fore
SplineSet
482 271 m 0
 482 351 434 397 356 397 c 0
 253 397 166 313 166 187 c 0
 166 113 218 65 297 65 c 0
 402 65 482 154 482 271 c 0
93 -127 m 1
 201 -127 l 2
 220 -127 231 -137 231 -155 c 0
 231 -180 215 -194 186 -194 c 2
 -26 -194 l 2
 -46 -194 -55 -185 -55 -167 c 0
 -55 -141 -40 -127 -11 -127 c 2
 21 -127 l 1
 169 572 l 1
 134 572 l 2
 114 572 104 581 104 600 c 0
 104 625 119 639 148 639 c 2
 230 639 l 2
 246 639 253 635 253 624 c 0
 253 621 253 618 252 615 c 2
 203 392 l 1
 256 439 314 462 375 462 c 0
 488 462 564 388 564 271 c 0
 564 118 443 -1 295 -1 c 0
 221 -1 169 24 136 74 c 1
 93 -127 l 1
EndSplineSet
EndChar
StartChar: dotlessi
Encoding: 245 305 144
Width: 602
Flags: MW
HStem: 0 67<76 247 100 247 319 459> 384 67<206.5 375 230 314>
VStem: 57 447<26.5 40>
LayerCount: 2
Fore
SplineSet
319 67 m 1
 474 67 l 2
 493 67 504 58 504 39 c 0
 504 14 488 0 459 0 c 2
 86 0 l 2
 66 0 57 9 57 27 c 0
 57 53 71 67 100 67 c 2
 247 67 l 1
 314 384 l 1
 216 384 l 2
 197 384 186 393 186 412 c 0
 186 437 201 451 230 451 c 2
 375 451 l 2
 390 451 397 448 397 437 c 0
 397 435 397 432 396 428 c 2
 319 67 l 1
EndSplineSet
EndChar
StartChar: lslash
Encoding: 248 322 145
Width: 602
Flags: MW
HStem: 0 67<77 238 101 238 310 444> 572 67<221.5 406 245 345>
VStem: 58 462<18 442.5>
LayerCount: 2
Fore
SplineSet
380 390 m 1
 470 447 l 2
 481 454 490 458 497 458 c 0
 509 458 520 448 520 437 c 0
 520 419 506 408 482 393 c 2
 366 320 l 1
 310 67 l 1
 459 67 l 2
 478 67 489 58 489 39 c 0
 489 14 473 0 444 0 c 2
 87 0 l 2
 67 0 58 9 58 27 c 0
 58 53 72 67 101 67 c 2
 238 67 l 1
 284 286 l 1
 193 228 l 2
 182 221 173 217 166 217 c 0
 154 217 143 227 143 238 c 0
 143 257 157 267 181 282 c 2
 298 356 l 1
 345 572 l 1
 231 572 l 2
 212 572 201 581 201 600 c 0
 201 625 216 639 245 639 c 2
 406 639 l 2
 422 639 429 636 429 624 c 0
 429 621 429 618 428 615 c 2
 380 390 l 1
EndSplineSet
EndChar
StartChar: OE
Encoding: 234 338 141
Width: 602
Flags: MW
HStem: 0 68<203 214 214 228 297 453> 285 59<355 412 341 422> 512 67<259 580 290 580 387 547 387 387>
VStem: 3 81<164 248.5 164 260.5>
LayerCount: 2
Fore
SplineSet
214 0 m 2
 86 0 3 84 3 221 c 0
 3 300 28 389 68 453 c 0
 120 536 209 579 329 579 c 2
 580 579 l 2
 607 579 623 566 623 546 c 0
 623 543 623 537 621 529 c 2
 596 425 l 2
 587 388 579 379 555 379 c 0
 535 379 525 389 525 406 c 0
 525 412 527 421 529 432 c 2
 547 512 l 1
 387 512 l 1
 355 344 l 1
 422 344 l 1
 430 377 l 2
 436 402 441 417 465 417 c 0
 482 417 491 409 491 394 c 0
 491 388 489 377 486 361 c 2
 465 254 l 2
 459 224 457 212 431 212 c 0
 414 212 404 220 404 231 c 0
 404 239 404 244 405 248 c 2
 412 285 l 1
 341 285 l 1
 297 68 l 1
 453 68 l 1
 474 158 l 2
 482 190 492 204 513 204 c 0
 534 204 543 195 543 175 c 0
 543 168 542 160 540 150 c 2
 517 42 l 2
 511 13 503 0 460 0 c 2
 214 0 l 2
228 68 m 1
 315 512 l 1
 290 512 l 2
 228 512 180 486 146 435 c 0
 112 384 84 288 84 209 c 0
 84 119 136 68 203 68 c 2
 228 68 l 1
EndSplineSet
EndChar
StartChar: oe
Encoding: 250 339 147
Width: 602
Flags: MW
HStem: -12 64<127 155.5 371.5 432.5> 203 62<341 512 341 512 328 512> 401 62<201.5 233 443.5 474.5>
VStem: 8 77<114 165.5 114 226.5> 521 74<315.5 348.5>
LayerCount: 2
Fore
SplineSet
341 265 m 1
 512 265 l 1
 518 288 521 307 521 324 c 0
 521 373 494 401 455 401 c 0
 407 401 358 352 341 265 c 1
256 65 m 1
 219 14 179 -12 132 -12 c 0
 61 -12 8 43 8 139 c 0
 8 314 109 463 222 463 c 0
 270 463 302 442 323 397 c 1
 372 441 417 463 470 463 c 0
 551 463 595 414 595 326 c 0
 595 267 579 223 573 215 c 0
 563 203 543 203 512 203 c 2
 328 203 l 1
 323 185 l 2
 318 166 315 149 315 135 c 0
 315 83 345 52 398 52 c 0
 468 52 499 120 532 120 c 0
 550 120 559 110 559 91 c 0
 559 56 477 -12 388 -12 c 0
 328 -12 287 13 256 65 c 1
85 143 m 0
 85 85 111 52 143 52 c 0
 203 52 268 179 268 327 c 0
 268 375 249 401 217 401 c 0
 186 401 149 369 123 310 c 0
 99 256 85 188 85 143 c 0
EndSplineSet
EndChar
StartChar: florin
Encoding: 166 402 100
Width: 602
Flags: MW
HStem: -139 64<113.5 161.5 113.5 165> 342 55<167.5 259 191 254 331 399> 573 59<404 458>
VStem: 17 524
LayerCount: 2
Fore
SplineSet
288 25 m 2
 275 -90 221 -139 109 -139 c 0
 50 -139 17 -123 17 -97 c 0
 17 -78 31 -63 47 -63 c 0
 72 -63 98 -75 129 -75 c 0
 194 -75 210 -32 220 53 c 2
 254 342 l 1
 176 342 l 2
 159 342 149 352 149 367 c 0
 149 388 163 397 191 397 c 2
 259 397 l 1
 269 471 l 2
 283 581 334 632 446 632 c 0
 508 632 541 616 541 589 c 0
 541 573 527 559 512 559 c 0
 500 559 477 573 439 573 c 0
 369 573 348 538 339 461 c 2
 331 397 l 1
 402 397 l 2
 429 397 445 394 445 370 c 0
 445 348 430 342 399 342 c 2
 325 342 l 1
 288 25 l 2
EndSplineSet
EndChar
StartChar: circumflex
Encoding: 195 710 125
Width: 602
Flags: MW
HStem: 510 147<200.5 367.5>
VStem: 187 299<522.5 527.5 521.5 530.5>
LayerCount: 2
Fore
SplineSet
391 647 m 2
 482 536 l 2
 484 533 486 529 486 526 c 0
 486 517 477 508 467 508 c 0
 464 508 460 509 456 512 c 2
 354 591 l 1
 214 512 l 2
 211 510 208 510 205 510 c 0
 196 510 187 517 187 528 c 0
 187 533 189 538 193 541 c 2
 325 647 l 2
 333 654 345 657 360 657 c 0
 375 657 385 654 391 647 c 2
EndSplineSet
EndChar
StartChar: caron
Encoding: 207 711 135
Width: 602
Flags: MW
HStem: 511 147<345.5 512.5>
VStem: 227 299<640.5 645.5 637.5 646.5>
LayerCount: 2
Fore
SplineSet
322 521 m 2
 231 632 l 2
 229 635 227 639 227 642 c 0
 227 651 236 660 246 660 c 0
 249 660 253 659 257 656 c 2
 359 577 l 1
 499 656 l 2
 502 658 505 658 508 658 c 0
 517 658 526 651 526 640 c 0
 526 635 524 631 520 628 c 2
 388 521 l 2
 380 514 368 511 353 511 c 0
 338 511 328 514 322 521 c 2
EndSplineSet
EndChar
StartChar: breve
Encoding: 198 728 128
Width: 602
Flags: MW
HStem: 528 59<369.5 412 369.5 442.5>
VStem: 226 342<614 645>
LayerCount: 2
Fore
SplineSet
389 528 m 0
 286 528 226 579 226 638 c 0
 226 652 231 659 240 659 c 0
 267 659 272 631 295 613 c 0
 319 594 349 587 390 587 c 0
 434 587 466 594 495 613 c 0
 532 637 534 660 553 660 c 0
 563 660 568 653 568 639 c 0
 568 589 496 528 389 528 c 0
EndSplineSet
EndChar
StartChar: dotaccent
Encoding: 199 729 129
Width: 602
Flags: MW
HStem: 527 124<342.5 376 342.5 376.5>
VStem: 297 124<571.5 605>
LayerCount: 2
Fore
SplineSet
297 589 m 0
 297 621 326 651 359 651 c 0
 393 651 421 623 421 589 c 0
 421 553 394 527 359 527 c 0
 325 527 297 554 297 589 c 0
EndSplineSet
EndChar
StartChar: ring
Encoding: 202 730 131
Width: 602
Flags: MW
HStem: 500 57<347.5 384 347.5 400.5> 689 58<347.5 384>
VStem: 243 57<604.5 641 604.5 658> 432 57<604.5 641>
LayerCount: 2
Fore
SplineSet
300 623 m 0
 300 586 329 557 366 557 c 0
 402 557 432 586 432 623 c 0
 432 659 402 689 366 689 c 0
 329 689 300 659 300 623 c 0
243 624 m 0
 243 692 297 747 366 747 c 0
 435 747 489 693 489 624 c 0
 489 555 435 500 366 500 c 0
 297 500 243 555 243 624 c 0
EndSplineSet
EndChar
StartChar: ogonek
Encoding: 206 731 134
Width: 602
Flags: MW
HStem: -223 55<280.5 287>
VStem: 177 72<-131.5 -123>
LayerCount: 2
Fore
SplineSet
334 15 m 1
 278 -31 249 -68 249 -114 c 0
 249 -149 266 -168 295 -168 c 0
 329 -168 343 -137 352 -137 c 0
 359 -137 363 -142 363 -146 c 0
 363 -164 320 -223 254 -223 c 0
 207 -223 177 -193 177 -150 c 0
 177 -96 221 -39 308 15 c 1
 334 15 l 1
EndSplineSet
EndChar
StartChar: tilde
Encoding: 196 732 126
Width: 602
Flags: W
HStem: 542 59<444 461> 572 59<257.5 274>
VStem: 182 353<550.5 623.5>
LayerCount: 2
Fore
SplineSet
406 609 m 2x60
 424 604 438 601 450 601 c 0
 490 601 497 636 518 636 c 0
 529 636 535 629 535 618 c 0
 535 594 495 542 427 542 c 0xa0
 406 542 384 545 365 550 c 2
 312 565 l 2
 295 570 280 572 268 572 c 0
 228 572 220 538 199 538 c 0
 188 538 182 545 182 556 c 0
 182 581 224 631 291 631 c 0
 313 631 334 628 353 623 c 2
 406 609 l 2x60
EndSplineSet
EndChar
StartChar: hungarumlaut
Encoding: 205 733 133
Width: 602
Flags: W
HStem: 516 142<373.5 393>
VStem: 212 204<538 612> 375 204<538 612>
LayerCount: 2
Fore
SplineSet
212 538 m 1xc0
 356 649 l 2
 364 655 371 658 376 658 c 0
 382 658 389 655 393 650 c 2
 412 622 l 2
 415 618 416 614 416 610 c 0
 416 603 412 598 403 594 c 2
 230 516 l 1
 212 538 l 1xc0
375 538 m 1xa0
 519 649 l 2
 527 655 534 658 539 658 c 0
 545 658 552 655 556 650 c 2
 575 622 l 2
 578 618 579 614 579 610 c 0
 579 603 575 598 566 594 c 2
 393 516 l 1
 375 538 l 1xa0
EndSplineSet
EndChar
StartChar: endash
Encoding: 177 8211 110
Width: 602
Flags: MW
HStem: 185 81<-8 603 1 600>
VStem: -23 650<206 248 207.5 248>
LayerCount: 2
Fore
SplineSet
603 266 m 2
 618 266 627 258 627 248 c 0
 627 247 627 247 627 246 c 2
 624 208 l 2
 623 194 612 185 600 185 c 2
 -2 185 l 2
 -14 185 -23 194 -23 206 c 0
 -23 207 -23 207 -23 208 c 2
 -20 246 l 2
 -19 259 -11 266 1 266 c 2
 603 266 l 2
EndSplineSet
EndChar
StartChar: emdash
Encoding: 208 8212 136
Width: 602
Flags: MW
HStem: 185 81<-9 602 0 599>
VStem: -24 650<206 248 207.5 248>
LayerCount: 2
Fore
SplineSet
602 266 m 2
 617 266 626 258 626 248 c 0
 626 247 626 247 626 246 c 2
 623 208 l 2
 622 194 611 185 599 185 c 2
 -3 185 l 2
 -15 185 -24 194 -24 206 c 0
 -24 207 -24 207 -24 208 c 2
 -21 246 l 2
 -20 259 -12 266 0 266 c 2
 602 266 l 2
EndSplineSet
EndChar
StartChar: quoteleft
Encoding: 96 8216 64
Width: 602
Flags: MW
HStem: 340 257<226 395.5 229 395.5>
VStem: 219 217
LayerCount: 2
Fore
SplineSet
429 553 m 2
 339 356 l 2
 333 343 325 340 311 340 c 2
 229 340 l 2
 223 340 219 344 219 350 c 0
 219 352 220 354 221 356 c 2
 374 584 l 2
 380 593 387 597 394 597 c 0
 397 597 400 596 403 595 c 2
 429 582 l 2
 433 580 436 574 436 570 c 0
 436 569 434 563 429 553 c 2
EndSplineSet
EndChar
StartChar: quoteright
Encoding: 39 8217 7
Width: 602
Flags: MW
HStem: 321 258<267.5 434>
VStem: 228 217
LayerCount: 2
Fore
SplineSet
234 365 m 2
 325 562 l 2
 331 575 338 579 352 579 c 2
 434 579 l 2
 440 579 445 575 445 569 c 0
 445 567 444 564 443 562 c 2
 289 334 l 2
 283 325 276 321 269 321 c 0
 266 321 263 322 260 323 c 2
 235 337 l 2
 231 339 228 344 228 348 c 0
 228 349 229 355 234 365 c 2
EndSplineSet
EndChar
StartChar: quotesinglbase
Encoding: 184 8218 116
Width: 602
Flags: MW
HStem: -140 257<204.5 371>
VStem: 165 217
LayerCount: 2
Fore
SplineSet
171 -97 m 2
 262 100 l 2
 268 113 275 117 289 117 c 2
 371 117 l 2
 377 117 382 113 382 107 c 0
 382 105 381 103 380 101 c 2
 226 -128 l 2
 220 -136 213 -140 206 -140 c 0
 203 -140 200 -140 197 -138 c 2
 172 -125 l 2
 168 -123 165 -118 165 -114 c 0
 165 -113 166 -107 171 -97 c 2
EndSplineSet
EndChar
StartChar: quotedblleft
Encoding: 170 8220 104
Width: 602
Flags: MW
HStem: 340 257<122 291.5 125 291.5 286.5 346 286.5 428>
VStem: 114 217 336 217
LayerCount: 2
Fore
SplineSet
546 553 m 2
 456 356 l 2
 450 343 442 340 428 340 c 2
 346 340 l 2
 340 340 336 344 336 350 c 0
 336 352 337 354 338 356 c 2
 491 584 l 2
 497 593 504 597 511 597 c 0
 514 597 517 596 520 595 c 2
 546 582 l 2
 550 580 553 574 553 570 c 0
 553 569 551 563 546 553 c 2
325 553 m 2
 234 356 l 2
 228 343 221 340 207 340 c 2
 125 340 l 2
 119 340 114 344 114 350 c 0
 114 352 115 354 116 356 c 2
 270 584 l 2
 276 593 283 597 290 597 c 0
 293 597 296 596 299 595 c 2
 325 582 l 2
 329 580 331 574 331 570 c 0
 331 569 330 563 325 553 c 2
EndSplineSet
EndChar
StartChar: quotedblright
Encoding: 186 8221 118
Width: 602
Flags: MW
HStem: 321 258<167.5 334 253 394.5>
VStem: 128 215<346 562> 349 217
LayerCount: 2
Fore
SplineSet
135 365 m 2
 225 562 l 2
 231 575 239 579 253 579 c 2
 334 579 l 2
 340 579 345 575 345 569 c 0
 345 567 344 564 343 562 c 2
 190 334 l 2
 184 325 176 321 169 321 c 0
 166 321 163 322 160 323 c 2
 135 337 l 2
 131 339 128 344 128 348 c 0
 128 349 130 355 135 365 c 2
356 365 m 2
 446 562 l 2
 452 575 460 579 474 579 c 2
 556 579 l 2
 562 579 566 575 566 569 c 0
 566 567 565 564 564 562 c 2
 411 334 l 2
 405 325 398 321 391 321 c 0
 388 321 385 322 382 323 c 2
 356 337 l 2
 352 339 349 344 349 348 c 0
 349 349 351 355 356 365 c 2
EndSplineSet
EndChar
StartChar: quotedblbase
Encoding: 185 8222 117
Width: 602
Flags: MW
HStem: -139 257<94.5 261 179 321.5>
VStem: 55 217 276 217
LayerCount: 2
Fore
SplineSet
283 -95 m 2
 373 101 l 2
 379 114 387 118 401 118 c 2
 483 118 l 2
 489 118 493 114 493 108 c 0
 493 106 492 104 491 102 c 2
 338 -127 l 2
 332 -135 325 -139 318 -139 c 0
 315 -139 312 -139 309 -137 c 2
 283 -124 l 2
 279 -122 276 -116 276 -112 c 0
 276 -111 278 -105 283 -95 c 2
62 -95 m 2
 152 101 l 2
 158 114 165 118 179 118 c 2
 261 118 l 2
 267 118 272 114 272 108 c 0
 272 106 271 104 270 102 c 2
 116 -127 l 2
 110 -135 103 -139 96 -139 c 0
 93 -139 90 -139 87 -137 c 2
 62 -124 l 2
 58 -122 55 -116 55 -112 c 0
 55 -111 57 -105 62 -95 c 2
EndSplineSet
EndChar
StartChar: dagger
Encoding: 178 8224 111
Width: 602
Flags: MW
HStem: -16 20 383 63<168 306 187 294 187 361 373 470> 575 20<357.5 375>
VStem: 152 352<411.5 418.5>
LayerCount: 2
Fore
SplineSet
174 383 m 2
 162 383 152 393 152 407 c 0
 152 430 168 446 187 446 c 2
 306 446 l 1
 327 558 l 2
 331 579 348 595 367 595 c 0
 383 595 395 583 395 565 c 0
 395 562 394 560 394 557 c 2
 373 446 l 1
 483 446 l 2
 494 446 504 437 504 424 c 0
 504 399 491 383 470 383 c 2
 361 383 l 1
 287 22 l 2
 283 1 266 -16 247 -16 c 0
 231 -16 220 -4 220 14 c 0
 220 16 220 19 221 22 c 2
 294 383 l 1
 174 383 l 2
EndSplineSet
EndChar
StartChar: daggerdbl
Encoding: 179 8225 112
Width: 602
Flags: MW
HStem: -15 20 134 63<137.5 265 156 253 156 320 332 439> 384 63<179 317 198 305 198 372 384 481> 576 20<368.5 386>
VStem: 122 393<149.5 431.5>
LayerCount: 2
Fore
SplineSet
253 134 m 1
 143 134 l 2
 132 134 122 143 122 156 c 0
 122 181 135 197 156 197 c 2
 265 197 l 1
 305 384 l 1
 185 384 l 2
 173 384 163 394 163 408 c 0
 163 431 179 447 198 447 c 2
 317 447 l 1
 338 559 l 2
 342 580 359 596 378 596 c 0
 394 596 406 584 406 566 c 0
 406 563 405 561 405 558 c 2
 384 447 l 1
 494 447 l 2
 505 447 515 438 515 425 c 0
 515 400 502 384 481 384 c 2
 372 384 l 1
 332 197 l 1
 452 197 l 2
 464 197 474 187 474 173 c 0
 474 150 458 134 439 134 c 2
 320 134 l 1
 299 22 l 2
 295 1 278 -15 259 -15 c 0
 243 -15 231 -3 231 14 c 0
 231 17 232 19 232 22 c 2
 253 134 l 1
EndSplineSet
EndChar
StartChar: ellipsis
Encoding: 188 8230 120
Width: 602
Flags: MW
HStem: -12 145<80 120 281 321 482 522>
VStem: 27 145<40 80> 229 144<40 80> 429 145<40 80>
LayerCount: 2
Fore
SplineSet
229 60 m 0
 229 100 261 133 301 133 c 0
 341 133 373 100 373 60 c 0
 373 20 341 -12 301 -12 c 0
 261 -12 229 20 229 60 c 0
27 60 m 0
 27 100 60 133 100 133 c 0
 140 133 172 100 172 60 c 0
 172 20 140 -12 100 -12 c 0
 60 -12 27 20 27 60 c 0
429 60 m 0
 429 100 462 133 502 133 c 0
 542 133 574 100 574 60 c 0
 574 20 542 -12 502 -12 c 0
 462 -12 429 20 429 60 c 0
EndSplineSet
EndChar
StartChar: guilsinglleft
Encoding: 172 8249 106
Width: 602
Flags: MW
HStem: 47 361<307 364>
VStem: 228 156<223 389>
LayerCount: 2
Fore
SplineSet
300 230 m 1
 339 90 l 2
 340 85 341 80 341 76 c 0
 341 59 329 47 313 47 c 0
 301 47 289 56 285 68 c 2
 230 215 l 2
 229 219 228 222 228 224 c 0
 228 239 231 248 239 259 c 2
 329 393 l 2
 335 402 346 408 356 408 c 0
 372 408 384 396 384 382 c 0
 384 374 382 368 379 362 c 2
 300 230 l 1
EndSplineSet
EndChar
StartChar: guilsinglright
Encoding: 173 8250 107
Width: 602
Flags: MW
HStem: 49 361<246 303>
VStem: 226 156<69 234>
LayerCount: 2
Fore
SplineSet
310 227 m 1
 270 368 l 2
 269 373 268 377 268 381 c 0
 268 398 281 410 297 410 c 0
 309 410 321 402 325 390 c 2
 380 243 l 2
 381 239 382 235 382 233 c 0
 382 218 379 210 371 199 c 2
 280 64 l 2
 274 55 264 49 254 49 c 0
 238 49 226 62 226 76 c 0
 226 84 228 90 231 96 c 2
 310 227 l 1
EndSplineSet
EndChar
StartChar: trademark
Encoding: 312 8482 205
Width: 602
Flags: MW
HStem: 337 20 391 171<124 141 109 141 194 212 212 224> 596 20<85 250 250 258>
VStem: 57 52<514 562 518 562> 141 53<391 562 391 562> 228 51<517 517> 319 47<391 529> 473 48<391 529>
LayerCount: 2
Fore
SplineSet
420 485 m 1
 450 592 l 2
 454 607 465 615 482 615 c 2
 514 615 l 2
 528 615 538 605 538 589 c 0
 538 575 530 566 516 563 c 1
 521 391 l 1
 539 389 547 380 547 364 c 0
 547 348 536 337 522 337 c 2
 469 337 l 2
 448 337 437 346 437 364 c 0
 437 382 448 391 469 391 c 0
 471 391 472 391 473 391 c 1
 473 529 l 1
 448 437 l 2
 443 420 436 413 420 413 c 0
 404 413 396 420 391 437 c 2
 366 529 l 1
 366 391 l 1
 367 391 369 391 370 391 c 0
 393 391 403 383 403 364 c 0
 403 346 393 337 372 337 c 2
 319 337 l 2
 304 337 294 347 294 364 c 0
 294 381 301 389 319 391 c 1
 324 563 l 1
 309 566 303 575 303 589 c 0
 303 605 313 615 327 615 c 2
 358 615 l 2
 375 615 387 607 391 592 c 2
 420 485 l 1
108 517 m 2
 107 491 101 481 81 481 c 0
 63 481 57 491 57 514 c 0
 57 515 57 517 57 519 c 2
 59 590 l 2
 59 606 69 616 85 616 c 2
 250 616 l 2
 266 616 275 606 276 590 c 2
 279 519 l 2
 279 514 279 510 279 506 c 0
 279 491 268 481 254 481 c 0
 234 481 229 491 228 517 c 2
 226 562 l 1
 194 562 l 1
 194 391 l 1
 212 391 l 2
 236 391 246 385 246 364 c 0
 246 349 236 337 221 337 c 2
 114 337 l 2
 99 337 89 348 89 364 c 0
 89 385 99 391 124 391 c 2
 141 391 l 1
 141 562 l 1
 109 562 l 1
 108 517 l 2
EndSplineSet
EndChar
StartChar: fi
Encoding: 174 64257 108
Width: 602
Flags: W
HStem: 0 67<-3 80 22 80 154 222 342 396 468 520> 384 67<65.5 162 90 148 90 221 236 297 415 463> 544 126<538.5 548.5> 566 73<302.5 336.5>
VStem: -22 460 299 266<26.5 40> 491 104<601.5 613>
LayerCount: 2
Fore
SplineSet
468 67 m 1xc4
 535 67 l 2
 554 67 565 58 565 39 c 0
 565 14 549 0 520 0 c 2
 328 0 l 2
 308 0 299 9 299 27 c 0
 299 53 313 67 342 67 c 2
 396 67 l 1
 463 384 l 1
 400 384 l 2
 381 384 370 393 370 412 c 0
 370 437 386 451 415 451 c 2
 524 451 l 2
 539 451 546 448 546 437 c 0
 546 435 546 432 545 428 c 2
 468 67 l 1xc4
148 384 m 1xd8
 75 384 l 2
 56 384 46 393 46 412 c 0
 46 437 61 451 90 451 c 2
 162 451 l 1
 165 467 l 1
 191 581 228 639 334 639 c 0
 403 639 438 624 438 596 c 0
 438 573 420 555 394 555 c 0
 371 555 348 566 325 566 c 0
 280 566 253 534 240 472 c 2
 236 451 l 1
 311 451 l 2
 330 451 341 442 341 423 c 0
 341 398 326 384 297 384 c 2
 221 384 l 1
 154 67 l 1
 237 67 l 2
 256 67 267 58 267 39 c 0
 267 14 251 0 222 0 c 2
 7 0 l 2
 -13 0 -22 9 -22 27 c 0
 -22 53 -7 67 22 67 c 2
 80 67 l 1
 148 384 l 1xd8
560 670 m 0x22
 587 670 595 661 595 639 c 0xd8
 595 564 570 544 527 544 c 0
 500 544 491 553 491 575 c 0
 491 651 517 670 560 670 c 0x22
EndSplineSet
EndChar
StartChar: fl
Encoding: 175 64258 109
Width: 602
Flags: MW
HStem: 0 67<-3 80 22 80 154 222 342 397 469 521> 384 67<65.5 162 90 148 90 221 236 312> 572 67<429.5 434 434 504>
VStem: -22 609<18 630.5>
LayerCount: 2
Fore
SplineSet
148 384 m 1
 75 384 l 2
 56 384 46 393 46 412 c 0
 46 437 61 451 90 451 c 2
 162 451 l 1
 165 467 l 2
 180 532 193 580 238 612 c 0
 273 637 314 639 369 639 c 0
 380 639 391 639 403 639 c 2
 565 639 l 2
 580 639 587 636 587 625 c 0
 587 622 587 619 586 615 c 2
 469 67 l 1
 535 67 l 2
 554 67 565 58 565 39 c 0
 565 14 550 0 521 0 c 2
 328 0 l 2
 308 0 299 9 299 27 c 0
 299 53 313 67 342 67 c 2
 397 67 l 1
 504 572 l 1
 434 572 l 2
 425 572 413 562 389 562 c 0
 369 562 348 569 325 569 c 0
 282 569 253 537 240 472 c 2
 236 451 l 1
 326 451 l 2
 345 451 356 442 356 423 c 0
 356 398 341 384 312 384 c 2
 221 384 l 1
 154 67 l 1
 237 67 l 2
 256 67 267 58 267 39 c 0
 267 14 251 0 222 0 c 2
 7 0 l 2
 -13 0 -22 9 -22 27 c 0
 -22 53 -7 67 22 67 c 2
 80 67 l 1
 148 384 l 1
EndSplineSet
EndChar
